<svg width="451" height="451" viewBox="0 0 451 451" fill="none" xmlns="http://www.w3.org/2000/svg">
<g filter="url(#filter0_d_1462_9701)">
<g filter="url(#filter1_d_1462_9701)">
<path d="M86.3305 176.065L170.59 238.687C178.448 244.531 175.374 256.918 165.681 258.406L116.059 266.053C119.025 274.786 123.032 282.969 127.915 290.482C150.916 325.932 193.413 346.61 237.861 339.77C269.62 334.874 296.149 316.89 312.788 292.173C315.66 287.922 321.475 286.856 325.617 289.904L350.236 307.966C354.035 310.757 355.035 315.992 352.525 319.98L349.952 324.074C325.856 357.214 289.035 381.122 245.356 387.851C173.936 398.859 106.045 360.524 76.6512 298.388C72.9027 290.484 69.7777 282.205 67.3731 273.562C65.6602 267.513 64.2973 261.298 63.3144 254.936C59.3551 229.453 61.7139 204.442 69.2152 181.483C71.5532 174.315 80.2634 171.569 86.3305 176.065Z" fill="#FDC443"/>
</g>
<g filter="url(#filter2_d_1462_9701)">
<path d="M361.67 270.967L277.41 208.344C269.552 202.5 272.626 190.113 282.319 188.625L327.355 181.683C329.765 181.313 331.211 178.805 330.329 176.529C327.57 169.459 324.137 162.775 320.085 156.549C297.084 121.099 254.587 100.421 210.139 107.261C178.38 112.157 151.851 130.141 135.213 154.858C132.34 159.109 126.525 160.175 122.383 157.127L97.7638 139.065C93.9652 136.275 92.9652 131.039 95.475 127.052L98.048 122.957C122.144 89.817 158.981 65.9116 202.644 59.1808C274.064 48.172 341.955 86.5072 371.349 148.644C375.097 156.547 378.222 164.827 380.627 173.469C382.34 179.518 383.703 185.734 384.686 192.095C388.645 217.578 386.286 242.589 378.785 265.549C376.447 272.716 367.737 275.462 361.67 270.967Z" fill="#FDC443"/>
</g>
</g>
<circle cx="225.5" cy="225.5" r="224.944" stroke="#254DEF" stroke-width="1.11203" stroke-dasharray="4.45 4.45"/>
<circle cx="383.5" cy="64.5" r="24.5" fill="#5CB85D"/>
<g clip-path="url(#clip0_1462_9701)">
<path d="M383.5 67.7667C385.304 67.7667 386.767 66.3041 386.767 64.5C386.767 62.6959 385.304 61.2333 383.5 61.2333C381.696 61.2333 380.233 62.6959 380.233 64.5C380.233 66.3041 381.696 67.7667 383.5 67.7667Z" stroke="white" stroke-width="1.66667" stroke-linecap="round" stroke-linejoin="round"/>
<path d="M391.558 67.7667C391.413 68.0951 391.37 68.4594 391.434 68.8126C391.498 69.1659 391.666 69.4918 391.917 69.7484L391.982 69.8138C392.185 70.016 392.346 70.2562 392.455 70.5206C392.565 70.785 392.621 71.0684 392.621 71.3546C392.621 71.6407 392.565 71.9241 392.455 72.1885C392.346 72.4529 392.185 72.6931 391.982 72.8953C391.78 73.0978 391.54 73.2584 391.276 73.368C391.011 73.4776 390.728 73.534 390.442 73.534C390.155 73.534 389.872 73.4776 389.608 73.368C389.343 73.2584 389.103 73.0978 388.901 72.8953L388.836 72.83C388.579 72.579 388.253 72.4106 387.9 72.3465C387.547 72.2825 387.182 72.3257 386.854 72.4707C386.532 72.6087 386.257 72.8379 386.064 73.13C385.87 73.4222 385.766 73.7645 385.765 74.1149V74.3C385.765 74.8776 385.535 75.4315 385.127 75.8399C384.719 76.2483 384.165 76.4778 383.587 76.4778C383.01 76.4778 382.456 76.2483 382.047 75.8399C381.639 75.4315 381.409 74.8776 381.409 74.3V74.202C381.401 73.8416 381.284 73.492 381.075 73.1988C380.865 72.9056 380.572 72.6822 380.233 72.5578C379.905 72.4128 379.541 72.3696 379.187 72.4336C378.834 72.4977 378.508 72.6661 378.252 72.9171L378.186 72.9824C377.984 73.1849 377.744 73.3456 377.479 73.4551C377.215 73.5647 376.932 73.6212 376.645 73.6212C376.359 73.6212 376.076 73.5647 375.811 73.4551C375.547 73.3456 375.307 73.1849 375.105 72.9824C374.902 72.7802 374.742 72.54 374.632 72.2756C374.522 72.0112 374.466 71.7279 374.466 71.4417C374.466 71.1555 374.522 70.8721 374.632 70.6077C374.742 70.3433 374.902 70.1031 375.105 69.9009L375.17 69.8355C375.421 69.5789 375.589 69.253 375.653 68.8997C375.718 68.5465 375.674 68.1822 375.529 67.8538C375.391 67.5317 375.162 67.257 374.87 67.0636C374.578 66.8701 374.235 66.7663 373.885 66.7649H373.7C373.122 66.7649 372.568 66.5354 372.16 66.127C371.752 65.7186 371.522 65.1647 371.522 64.5871C371.522 64.0095 371.752 63.4556 372.16 63.0472C372.568 62.6388 373.122 62.4093 373.7 62.4093H373.798C374.158 62.4009 374.508 62.2842 374.801 62.0745C375.094 61.8648 375.318 61.5717 375.442 61.2333C375.587 60.9049 375.63 60.5406 375.566 60.1874C375.502 59.8341 375.334 59.5082 375.083 59.2515L375.018 59.1862C374.815 58.984 374.654 58.7438 374.545 58.4794C374.435 58.215 374.379 57.9316 374.379 57.6454C374.379 57.3592 374.435 57.0759 374.545 56.8115C374.654 56.5471 374.815 56.3069 375.018 56.1047C375.22 55.9022 375.46 55.7415 375.724 55.632C375.989 55.5224 376.272 55.4659 376.558 55.4659C376.845 55.4659 377.128 55.5224 377.392 55.632C377.657 55.7415 377.897 55.9022 378.099 56.1047L378.164 56.17C378.421 56.421 378.747 56.5894 379.1 56.6535C379.453 56.7175 379.818 56.6743 380.146 56.5293H380.233C380.555 56.3913 380.83 56.1621 381.024 55.87C381.217 55.5778 381.321 55.2355 381.322 54.8851V54.7C381.322 54.1224 381.552 53.5685 381.96 53.1601C382.368 52.7517 382.922 52.5222 383.5 52.5222C384.078 52.5222 384.632 52.7517 385.04 53.1601C385.448 53.5685 385.678 54.1224 385.678 54.7V54.798C385.679 55.1484 385.783 55.4907 385.976 55.7829C386.17 56.075 386.445 56.3042 386.767 56.4422C387.095 56.5872 387.459 56.6304 387.813 56.5664C388.166 56.5023 388.492 56.3339 388.748 56.0829L388.814 56.0176C389.016 55.8151 389.256 55.6544 389.521 55.5448C389.785 55.4352 390.068 55.3788 390.355 55.3788C390.641 55.3788 390.924 55.4352 391.189 55.5448C391.453 55.6544 391.693 55.8151 391.895 56.0176C392.098 56.2198 392.258 56.46 392.368 56.7244C392.478 56.9887 392.534 57.2721 392.534 57.5583C392.534 57.8445 392.478 58.1279 392.368 58.3923C392.258 58.6567 392.098 58.8968 391.895 59.0991L391.83 59.1644C391.579 59.4211 391.411 59.747 391.347 60.1002C391.282 60.4535 391.326 60.8178 391.471 61.1462V61.2333C391.609 61.5554 391.838 61.8301 392.13 62.0235C392.422 62.217 392.764 62.3208 393.115 62.3222H393.3C393.878 62.3222 394.432 62.5517 394.84 62.9601C395.248 63.3685 395.478 63.9224 395.478 64.5C395.478 65.0776 395.248 65.6315 394.84 66.0399C394.432 66.4483 393.878 66.6778 393.3 66.6778H393.202C392.852 66.6792 392.509 66.783 392.217 66.9765C391.925 67.1699 391.696 67.4446 391.558 67.7667Z" stroke="white" stroke-width="1.66667" stroke-linecap="round" stroke-linejoin="round"/>
</g>
<circle cx="40.5" cy="359.5" r="30.5" fill="#EF4444"/>
<path d="M40.4998 354.078V359.5M40.4998 364.922H40.5133M38.1818 347.11L26.7002 366.278C26.4635 366.688 26.3383 367.153 26.3369 367.626C26.3356 368.099 26.4582 368.565 26.6927 368.976C26.9271 369.387 27.2651 369.73 27.6731 369.97C28.0811 370.21 28.5449 370.339 29.0182 370.344H51.9813C52.4547 370.339 52.9184 370.21 53.3264 369.97C53.7344 369.73 54.0725 369.387 54.3069 368.976C54.5413 368.565 54.664 368.099 54.6626 367.626C54.6613 367.153 54.5361 366.688 54.2993 366.278L42.8178 347.11C42.5761 346.712 42.2359 346.382 41.8298 346.154C41.4238 345.925 40.9657 345.805 40.4998 345.805C40.0338 345.805 39.5757 345.925 39.1697 346.154C38.7637 346.382 38.4234 346.712 38.1818 347.11Z" stroke="white" stroke-width="1.66667" stroke-linecap="round" stroke-linejoin="round"/>
<defs>
<filter id="filter0_d_1462_9701" x="37.4158" y="57.3017" width="376.767" height="385.428" filterUnits="userSpaceOnUse" color-interpolation-filters="sRGB">
<feFlood flood-opacity="0" result="BackgroundImageFix"/>
<feColorMatrix in="SourceAlpha" type="matrix" values="0 0 0 0 0 0 0 0 0 0 0 0 0 0 0 0 0 0 127 0" result="hardAlpha"/>
<feOffset dy="29"/>
<feGaussianBlur stdDeviation="12"/>
<feComposite in2="hardAlpha" operator="out"/>
<feColorMatrix type="matrix" values="0 0 0 0 0 0 0 0 0 0 0 0 0 0 0 0 0 0 0.07 0"/>
<feBlend mode="normal" in2="BackgroundImageFix" result="effect1_dropShadow_1462_9701"/>
<feBlend mode="normal" in="SourceGraphic" in2="effect1_dropShadow_1462_9701" result="shape"/>
</filter>
<filter id="filter1_d_1462_9701" x="60.4158" y="173.879" width="293.49" height="223.851" filterUnits="userSpaceOnUse" color-interpolation-filters="sRGB">
<feFlood flood-opacity="0" result="BackgroundImageFix"/>
<feColorMatrix in="SourceAlpha" type="matrix" values="0 0 0 0 0 0 0 0 0 0 0 0 0 0 0 0 0 0 127 0" result="hardAlpha"/>
<feOffset dx="-1" dy="8"/>
<feComposite in2="hardAlpha" operator="out"/>
<feColorMatrix type="matrix" values="0 0 0 0 0 0 0 0 0 0 0 0 0 0 0 0 0 0 0.25 0"/>
<feBlend mode="normal" in2="BackgroundImageFix" result="effect1_dropShadow_1462_9701"/>
<feBlend mode="normal" in="SourceGraphic" in2="effect1_dropShadow_1462_9701" result="shape"/>
</filter>
<filter id="filter2_d_1462_9701" x="93.0945" y="57.3017" width="293.49" height="223.851" filterUnits="userSpaceOnUse" color-interpolation-filters="sRGB">
<feFlood flood-opacity="0" result="BackgroundImageFix"/>
<feColorMatrix in="SourceAlpha" type="matrix" values="0 0 0 0 0 0 0 0 0 0 0 0 0 0 0 0 0 0 127 0" result="hardAlpha"/>
<feOffset dx="-1" dy="8"/>
<feComposite in2="hardAlpha" operator="out"/>
<feColorMatrix type="matrix" values="0 0 0 0 0 0 0 0 0 0 0 0 0 0 0 0 0 0 0.25 0"/>
<feBlend mode="normal" in2="BackgroundImageFix" result="effect1_dropShadow_1462_9701"/>
<feBlend mode="normal" in="SourceGraphic" in2="effect1_dropShadow_1462_9701" result="shape"/>
</filter>
<clipPath id="clip0_1462_9701">
<rect width="26.1333" height="26.1333" fill="white" transform="translate(370.433 51.4333)"/>
</clipPath>
</defs>
</svg>
