<svg width="370" height="273" viewBox="0 0 370 273" fill="none" xmlns="http://www.w3.org/2000/svg">
<foreignObject x="0" y="0" width="370" height="273"><div xmlns="http://www.w3.org/1999/xhtml" style="backdrop-filter:blur(15px);clip-path:url(#bgblur_0_1464_1516_clip_path);height:100%;width:100%"></div></foreignObject><g filter="url(#filter0_dd_1464_1516)" data-figma-bg-blur-radius="30">
<rect x="40" y="40" width="290" height="193" rx="16" fill="white" fill-opacity="0.85" shape-rendering="crispEdges"/>
<rect x="40.5" y="40.5" width="289" height="192" rx="15.5" stroke="black" stroke-opacity="0.1" shape-rendering="crispEdges"/>
<path d="M76.4964 73.326H74.1058C74.0376 72.9339 73.9119 72.5866 73.7287 72.2841C73.5455 71.9773 73.3175 71.7173 73.0447 71.5043C72.772 71.2912 72.4609 71.1314 72.1115 71.0249C71.7663 70.9141 71.3935 70.8587 70.9929 70.8587C70.2813 70.8587 69.6506 71.0376 69.1009 71.3956C68.5511 71.7493 68.1207 72.2692 67.8097 72.9553C67.4986 73.6371 67.343 74.4702 67.343 75.4545C67.343 76.456 67.4986 77.2997 67.8097 77.9858C68.125 78.6676 68.5554 79.1832 69.1009 79.5327C69.6506 79.8778 70.2791 80.0504 70.9865 80.0504C71.3786 80.0504 71.745 79.9993 72.0859 79.897C72.4311 79.7905 72.7401 79.6349 73.0128 79.4304C73.2898 79.2259 73.522 78.9744 73.7095 78.6761C73.9013 78.3778 74.0334 78.0369 74.1058 77.6534L76.4964 77.6662C76.407 78.2884 76.2131 78.8722 75.9148 79.4176C75.6207 79.9631 75.2351 80.4446 74.7578 80.8622C74.2805 81.2756 73.7223 81.5994 73.0831 81.8338C72.4439 82.0639 71.7344 82.179 70.9545 82.179C69.804 82.179 68.777 81.9126 67.8736 81.38C66.9702 80.8473 66.2585 80.0781 65.7386 79.0724C65.2188 78.0668 64.9588 76.8608 64.9588 75.4545C64.9588 74.044 65.2209 72.8381 65.745 71.8366C66.2692 70.831 66.983 70.0618 67.8864 69.5291C68.7898 68.9964 69.8125 68.7301 70.9545 68.7301C71.6832 68.7301 72.3608 68.8324 72.9872 69.0369C73.6136 69.2415 74.1719 69.5419 74.6619 69.9382C75.152 70.3303 75.5547 70.8118 75.87 71.3828C76.1896 71.9496 76.3984 72.5973 76.4964 73.326ZM78.6681 68.9091H81.5701L85.4565 78.3949H85.6099L89.4963 68.9091H92.3983V82H90.1227V73.0064H90.0012L86.3833 81.9616H84.6831L81.0652 72.9872H80.9437V82H78.6681V68.9091ZM99.4167 82H94.9806V68.9091H99.5062C100.806 68.9091 101.922 69.1712 102.856 69.6953C103.793 70.2152 104.513 70.9631 105.016 71.9389C105.519 72.9148 105.77 74.0824 105.77 75.4418C105.77 76.8054 105.517 77.9773 105.01 78.9574C104.507 79.9375 103.78 80.6896 102.83 81.2138C101.884 81.7379 100.746 82 99.4167 82ZM97.3521 79.9482H99.3017C100.214 79.9482 100.974 79.782 101.584 79.4496C102.193 79.1129 102.651 78.6122 102.958 77.9474C103.265 77.2784 103.418 76.4432 103.418 75.4418C103.418 74.4403 103.265 73.6094 102.958 72.9489C102.651 72.2841 102.197 71.7876 101.596 71.4595C101 71.1271 100.258 70.9609 99.372 70.9609H97.3521V79.9482ZM108.024 82V68.9091H113.035C113.981 68.9091 114.767 69.0582 115.394 69.3565C116.024 69.6506 116.495 70.0533 116.806 70.5646C117.122 71.076 117.279 71.6555 117.279 72.3033C117.279 72.8359 117.177 73.2919 116.972 73.6712C116.768 74.0462 116.493 74.3509 116.148 74.5852C115.803 74.8196 115.417 74.9879 114.991 75.0902V75.218C115.455 75.2436 115.901 75.3864 116.327 75.6463C116.757 75.902 117.109 76.2642 117.382 76.733C117.654 77.2017 117.791 77.7685 117.791 78.4332C117.791 79.1108 117.627 79.7202 117.298 80.2614C116.97 80.7983 116.476 81.2223 115.816 81.5334C115.155 81.8445 114.324 82 113.323 82H108.024ZM110.395 80.0185H112.945C113.806 80.0185 114.426 79.8544 114.806 79.5263C115.189 79.1939 115.381 78.7678 115.381 78.2479C115.381 77.8601 115.285 77.5107 115.093 77.1996C114.901 76.8842 114.629 76.6371 114.275 76.4581C113.921 76.2749 113.499 76.1832 113.009 76.1832H110.395V80.0185ZM110.395 74.4766H112.741C113.15 74.4766 113.519 74.402 113.847 74.2528C114.175 74.0994 114.433 73.8842 114.62 73.6072C114.812 73.326 114.908 72.9936 114.908 72.6101C114.908 72.103 114.729 71.6854 114.371 71.3572C114.017 71.0291 113.491 70.8651 112.792 70.8651H110.395V74.4766Z" fill="#090909"/>
<path d="M298 75.6672C298.368 75.6672 298.667 75.3685 298.667 75C298.667 74.6315 298.368 74.3328 298 74.3328C297.632 74.3328 297.333 74.6315 297.333 75C297.333 75.3685 297.632 75.6672 298 75.6672Z" stroke="#090909" stroke-width="2" stroke-linecap="round"/>
<path d="M302.666 75.6672C303.034 75.6672 303.333 75.3685 303.333 75C303.333 74.6315 303.034 74.3328 302.666 74.3328C302.298 74.3328 302 74.6315 302 75C302 75.3685 302.298 75.6672 302.666 75.6672Z" stroke="#090909" stroke-width="2" stroke-linecap="round"/>
<path d="M293.334 75.6672C293.702 75.6672 294 75.3685 294 75C294 74.6315 293.702 74.3328 293.334 74.3328C292.966 74.3328 292.667 74.6315 292.667 75C292.667 75.3685 292.966 75.6672 293.334 75.6672Z" stroke="#090909" stroke-width="2" stroke-linecap="round"/>
<path d="M65.6506 110H64.358L68.0966 99.8182H69.3693L73.108 110H71.8153L68.7727 101.429H68.6932L65.6506 110ZM66.1278 106.023H71.3381V107.116H66.1278V106.023ZM82.4086 103H81.1756C81.1027 102.645 80.9751 102.334 80.7928 102.065C80.6138 101.797 80.3951 101.571 80.1365 101.389C79.8813 101.204 79.598 101.064 79.2864 100.972C78.9748 100.879 78.65 100.832 78.312 100.832C77.6955 100.832 77.137 100.988 76.6365 101.3C76.1394 101.611 75.7433 102.07 75.4483 102.677C75.1567 103.283 75.0108 104.027 75.0108 104.909C75.0108 105.791 75.1567 106.535 75.4483 107.141C75.7433 107.748 76.1394 108.207 76.6365 108.518C77.137 108.83 77.6955 108.986 78.312 108.986C78.65 108.986 78.9748 108.939 79.2864 108.847C79.598 108.754 79.8813 108.616 80.1365 108.434C80.3951 108.248 80.6138 108.021 80.7928 107.753C80.9751 107.481 81.1027 107.17 81.1756 106.818H82.4086C82.3158 107.339 82.1467 107.804 81.9015 108.215C81.6562 108.626 81.3513 108.976 80.9867 109.264C80.6221 109.549 80.2128 109.766 79.7587 109.915C79.3079 110.065 78.8257 110.139 78.312 110.139C77.4436 110.139 76.6713 109.927 75.9952 109.503C75.3191 109.079 74.7871 108.475 74.3993 107.693C74.0115 106.911 73.8176 105.983 73.8176 104.909C73.8176 103.835 74.0115 102.907 74.3993 102.125C74.7871 101.343 75.3191 100.74 75.9952 100.315C76.6713 99.8911 77.4436 99.679 78.312 99.679C78.8257 99.679 79.3079 99.7536 79.7587 99.9027C80.2128 100.052 80.6221 100.271 80.9867 100.559C81.3513 100.844 81.6562 101.192 81.9015 101.603C82.1467 102.011 82.3158 102.476 82.4086 103ZM84.4009 99.8182H85.8725L89.3327 108.27H89.4521L92.9123 99.8182H94.3839V110H93.2305V102.264H93.131L89.9492 110H88.8356L85.6538 102.264H85.5543V110H84.4009V99.8182ZM96.856 110V99.8182H103.001V100.912H98.089V104.352H102.683V105.446H98.089V108.906H103.08V110H96.856ZM117.354 103H116.121C116.048 102.645 115.92 102.334 115.738 102.065C115.559 101.797 115.34 101.571 115.082 101.389C114.827 101.204 114.543 101.064 114.232 100.972C113.92 100.879 113.595 100.832 113.257 100.832C112.641 100.832 112.082 100.988 111.582 101.3C111.085 101.611 110.689 102.07 110.394 102.677C110.102 103.283 109.956 104.027 109.956 104.909C109.956 105.791 110.102 106.535 110.394 107.141C110.689 107.748 111.085 108.207 111.582 108.518C112.082 108.83 112.641 108.986 113.257 108.986C113.595 108.986 113.92 108.939 114.232 108.847C114.543 108.754 114.827 108.616 115.082 108.434C115.34 108.248 115.559 108.021 115.738 107.753C115.92 107.481 116.048 107.17 116.121 106.818H117.354C117.261 107.339 117.092 107.804 116.847 108.215C116.602 108.626 116.297 108.976 115.932 109.264C115.567 109.549 115.158 109.766 114.704 109.915C114.253 110.065 113.771 110.139 113.257 110.139C112.389 110.139 111.617 109.927 110.941 109.503C110.264 109.079 109.732 108.475 109.345 107.693C108.957 106.911 108.763 105.983 108.763 104.909C108.763 103.835 108.957 102.907 109.345 102.125C109.732 101.343 110.264 100.74 110.941 100.315C111.617 99.8911 112.389 99.679 113.257 99.679C113.771 99.679 114.253 99.7536 114.704 99.9027C115.158 100.052 115.567 100.271 115.932 100.559C116.297 100.844 116.602 101.192 116.847 101.603C117.092 102.011 117.261 102.476 117.354 103ZM119.346 99.8182H120.818L124.278 108.27H124.397L127.858 99.8182H129.329V110H128.176V102.264H128.076L124.895 110H123.781L120.599 102.264H120.5V110H119.346V99.8182ZM134.943 110H131.801V99.8182H135.083C136.07 99.8182 136.915 100.022 137.618 100.43C138.321 100.834 138.859 101.416 139.234 102.175C139.608 102.93 139.796 103.835 139.796 104.889C139.796 105.95 139.607 106.863 139.229 107.629C138.851 108.391 138.301 108.978 137.578 109.388C136.856 109.796 135.977 110 134.943 110ZM133.034 108.906H134.864C135.706 108.906 136.403 108.744 136.957 108.419C137.51 108.094 137.923 107.632 138.195 107.032C138.467 106.432 138.602 105.718 138.602 104.889C138.602 104.067 138.468 103.36 138.2 102.766C137.931 102.17 137.53 101.712 136.997 101.394C136.463 101.073 135.798 100.912 135.003 100.912H133.034V108.906ZM141.864 110V99.8182H145.423C146.133 99.8182 146.718 99.9408 147.178 100.186C147.639 100.428 147.982 100.754 148.208 101.165C148.433 101.573 148.546 102.026 148.546 102.523C148.546 102.96 148.468 103.321 148.312 103.607C148.16 103.892 147.957 104.117 147.705 104.283C147.457 104.448 147.187 104.571 146.895 104.651V104.75C147.207 104.77 147.52 104.879 147.835 105.078C148.15 105.277 148.413 105.562 148.625 105.933C148.837 106.304 148.943 106.759 148.943 107.295C148.943 107.806 148.827 108.265 148.595 108.673C148.363 109.08 147.997 109.403 147.497 109.642C146.996 109.881 146.345 110 145.543 110H141.864ZM143.097 108.906H145.543C146.348 108.906 146.92 108.75 147.258 108.439C147.599 108.124 147.77 107.743 147.77 107.295C147.77 106.951 147.682 106.633 147.507 106.341C147.331 106.046 147.081 105.811 146.756 105.635C146.431 105.456 146.047 105.366 145.602 105.366H143.097V108.906ZM143.097 104.293H145.384C145.755 104.293 146.09 104.22 146.388 104.074C146.69 103.928 146.928 103.723 147.104 103.457C147.283 103.192 147.372 102.881 147.372 102.523C147.372 102.075 147.217 101.696 146.905 101.384C146.593 101.069 146.1 100.912 145.423 100.912H143.097V104.293ZM154.748 110V102.364H155.921V110H154.748ZM155.344 101.091C155.116 101.091 154.918 101.013 154.753 100.857C154.59 100.701 154.509 100.514 154.509 100.295C154.509 100.077 154.59 99.8894 154.753 99.7337C154.918 99.5779 155.116 99.5 155.344 99.5C155.573 99.5 155.769 99.5779 155.931 99.7337C156.097 99.8894 156.18 100.077 156.18 100.295C156.18 100.514 156.097 100.701 155.931 100.857C155.769 101.013 155.573 101.091 155.344 101.091ZM159.243 105.406V110H158.07V102.364H159.203V103.557H159.303C159.482 103.169 159.754 102.857 160.118 102.622C160.483 102.384 160.953 102.264 161.53 102.264C162.047 102.264 162.5 102.37 162.887 102.582C163.275 102.791 163.577 103.109 163.792 103.537C164.008 103.961 164.115 104.498 164.115 105.148V110H162.942V105.227C162.942 104.627 162.786 104.16 162.475 103.825C162.163 103.487 161.736 103.318 161.192 103.318C160.818 103.318 160.483 103.399 160.188 103.562C159.896 103.724 159.666 103.961 159.497 104.273C159.328 104.584 159.243 104.962 159.243 105.406ZM169.58 102.364V103.358H165.623V102.364H169.58ZM166.776 100.534H167.95V107.812C167.95 108.144 167.998 108.393 168.094 108.558C168.193 108.721 168.319 108.83 168.472 108.886C168.628 108.939 168.792 108.966 168.964 108.966C169.093 108.966 169.199 108.959 169.282 108.946C169.365 108.929 169.431 108.916 169.481 108.906L169.72 109.96C169.64 109.99 169.529 110.02 169.387 110.05C169.244 110.083 169.063 110.099 168.845 110.099C168.513 110.099 168.188 110.028 167.87 109.886C167.555 109.743 167.294 109.526 167.085 109.234C166.879 108.943 166.776 108.575 166.776 108.131V100.534ZM174.465 110.159C173.729 110.159 173.095 109.997 172.561 109.672C172.031 109.344 171.621 108.886 171.333 108.3C171.048 107.71 170.905 107.024 170.905 106.241C170.905 105.459 171.048 104.77 171.333 104.173C171.621 103.573 172.022 103.106 172.536 102.771C173.053 102.433 173.656 102.264 174.346 102.264C174.743 102.264 175.136 102.33 175.524 102.463C175.912 102.596 176.265 102.811 176.583 103.109C176.901 103.404 177.155 103.795 177.344 104.283C177.532 104.77 177.627 105.37 177.627 106.082V106.58H171.741V105.565H176.434C176.434 105.134 176.348 104.75 176.175 104.412C176.006 104.074 175.764 103.807 175.449 103.612C175.138 103.416 174.77 103.318 174.346 103.318C173.878 103.318 173.474 103.434 173.133 103.666C172.795 103.895 172.534 104.193 172.352 104.561C172.17 104.929 172.079 105.323 172.079 105.744V106.42C172.079 106.997 172.178 107.486 172.377 107.887C172.579 108.285 172.859 108.588 173.217 108.797C173.575 109.002 173.991 109.105 174.465 109.105C174.773 109.105 175.052 109.062 175.3 108.976C175.552 108.886 175.769 108.754 175.952 108.578C176.134 108.399 176.275 108.177 176.374 107.912L177.508 108.23C177.388 108.615 177.188 108.953 176.906 109.244C176.624 109.533 176.276 109.758 175.862 109.92C175.448 110.08 174.982 110.159 174.465 110.159ZM182.494 113.023C181.927 113.023 181.44 112.95 181.032 112.804C180.625 112.661 180.285 112.473 180.013 112.237C179.745 112.005 179.531 111.757 179.372 111.491L180.307 110.835C180.413 110.974 180.547 111.134 180.709 111.312C180.872 111.495 181.094 111.652 181.376 111.785C181.661 111.921 182.033 111.989 182.494 111.989C183.111 111.989 183.619 111.839 184.02 111.541C184.421 111.243 184.622 110.776 184.622 110.139V108.588H184.523C184.436 108.727 184.314 108.9 184.155 109.105C183.999 109.307 183.773 109.488 183.479 109.647C183.187 109.803 182.792 109.881 182.295 109.881C181.679 109.881 181.125 109.735 180.635 109.443C180.148 109.152 179.761 108.727 179.476 108.17C179.195 107.614 179.054 106.937 179.054 106.142C179.054 105.36 179.191 104.679 179.466 104.099C179.742 103.515 180.124 103.065 180.615 102.746C181.105 102.425 181.672 102.264 182.315 102.264C182.812 102.264 183.207 102.347 183.498 102.513C183.793 102.675 184.019 102.861 184.175 103.07C184.334 103.275 184.456 103.444 184.542 103.577H184.662V102.364H185.795V110.219C185.795 110.875 185.646 111.409 185.348 111.82C185.053 112.234 184.655 112.537 184.155 112.729C183.657 112.925 183.104 113.023 182.494 113.023ZM182.454 108.827C182.925 108.827 183.323 108.719 183.648 108.504C183.972 108.288 184.219 107.978 184.388 107.574C184.557 107.17 184.642 106.686 184.642 106.122C184.642 105.572 184.559 105.086 184.393 104.665C184.228 104.245 183.982 103.915 183.657 103.676C183.333 103.437 182.932 103.318 182.454 103.318C181.957 103.318 181.543 103.444 181.211 103.696C180.883 103.948 180.636 104.286 180.471 104.71C180.308 105.134 180.227 105.605 180.227 106.122C180.227 106.652 180.31 107.121 180.476 107.529C180.645 107.933 180.893 108.252 181.221 108.484C181.553 108.712 181.964 108.827 182.454 108.827ZM187.943 110V102.364H189.077V103.517H189.156C189.295 103.139 189.547 102.833 189.912 102.597C190.276 102.362 190.687 102.244 191.145 102.244C191.231 102.244 191.339 102.246 191.468 102.249C191.597 102.253 191.695 102.258 191.761 102.264V103.457C191.721 103.447 191.63 103.433 191.488 103.413C191.349 103.389 191.201 103.378 191.045 103.378C190.674 103.378 190.343 103.456 190.051 103.612C189.763 103.764 189.534 103.976 189.365 104.248C189.199 104.516 189.116 104.823 189.116 105.168V110H187.943ZM195.399 110.179C194.915 110.179 194.476 110.088 194.082 109.906C193.687 109.72 193.374 109.453 193.142 109.105C192.91 108.754 192.794 108.33 192.794 107.832C192.794 107.395 192.88 107.04 193.053 106.768C193.225 106.493 193.455 106.278 193.744 106.122C194.032 105.966 194.35 105.85 194.698 105.774C195.049 105.695 195.402 105.632 195.757 105.585C196.221 105.526 196.597 105.481 196.886 105.451C197.177 105.418 197.389 105.363 197.522 105.287C197.658 105.211 197.726 105.078 197.726 104.889V104.849C197.726 104.359 197.592 103.978 197.323 103.706C197.058 103.434 196.655 103.298 196.115 103.298C195.555 103.298 195.116 103.421 194.798 103.666C194.479 103.911 194.256 104.173 194.126 104.452L193.013 104.054C193.212 103.59 193.477 103.229 193.808 102.97C194.143 102.708 194.508 102.526 194.902 102.423C195.3 102.317 195.691 102.264 196.075 102.264C196.321 102.264 196.602 102.294 196.92 102.354C197.242 102.41 197.552 102.528 197.85 102.707C198.152 102.886 198.402 103.156 198.601 103.517C198.8 103.878 198.899 104.362 198.899 104.969V110H197.726V108.966H197.666C197.587 109.132 197.454 109.309 197.268 109.498C197.083 109.687 196.836 109.848 196.528 109.98C196.219 110.113 195.843 110.179 195.399 110.179ZM195.578 109.125C196.042 109.125 196.433 109.034 196.751 108.852C197.073 108.669 197.315 108.434 197.477 108.146C197.643 107.857 197.726 107.554 197.726 107.236V106.162C197.676 106.222 197.567 106.276 197.398 106.326C197.232 106.372 197.04 106.414 196.821 106.45C196.606 106.483 196.395 106.513 196.19 106.54C195.987 106.563 195.823 106.583 195.697 106.599C195.393 106.639 195.107 106.704 194.842 106.793C194.58 106.879 194.368 107.01 194.206 107.186C194.047 107.358 193.967 107.594 193.967 107.892C193.967 108.3 194.118 108.608 194.42 108.817C194.725 109.022 195.111 109.125 195.578 109.125ZM204.362 102.364V103.358H200.404V102.364H204.362ZM201.558 100.534H202.731V107.812C202.731 108.144 202.779 108.393 202.875 108.558C202.975 108.721 203.101 108.83 203.253 108.886C203.409 108.939 203.573 108.966 203.745 108.966C203.874 108.966 203.981 108.959 204.063 108.946C204.146 108.929 204.213 108.916 204.262 108.906L204.501 109.96C204.421 109.99 204.31 110.02 204.168 110.05C204.025 110.083 203.845 110.099 203.626 110.099C203.294 110.099 202.97 110.028 202.651 109.886C202.337 109.743 202.075 109.526 201.866 109.234C201.66 108.943 201.558 108.575 201.558 108.131V100.534ZM206.127 110V102.364H207.3V110H206.127ZM206.723 101.091C206.494 101.091 206.297 101.013 206.132 100.857C205.969 100.701 205.888 100.514 205.888 100.295C205.888 100.077 205.969 99.8894 206.132 99.7337C206.297 99.5779 206.494 99.5 206.723 99.5C206.952 99.5 207.147 99.5779 207.31 99.7337C207.476 99.8894 207.558 100.077 207.558 100.295C207.558 100.514 207.476 100.701 207.31 100.857C207.147 101.013 206.952 101.091 206.723 101.091ZM212.551 110.159C211.862 110.159 211.257 109.995 210.737 109.667C210.219 109.339 209.815 108.88 209.523 108.29C209.235 107.7 209.091 107.01 209.091 106.222C209.091 105.426 209.235 104.732 209.523 104.138C209.815 103.545 210.219 103.085 210.737 102.756C211.257 102.428 211.862 102.264 212.551 102.264C213.241 102.264 213.844 102.428 214.361 102.756C214.881 103.085 215.286 103.545 215.574 104.138C215.866 104.732 216.011 105.426 216.011 106.222C216.011 107.01 215.866 107.7 215.574 108.29C215.286 108.88 214.881 109.339 214.361 109.667C213.844 109.995 213.241 110.159 212.551 110.159ZM212.551 109.105C213.075 109.105 213.506 108.971 213.844 108.702C214.182 108.434 214.432 108.081 214.594 107.643C214.757 107.206 214.838 106.732 214.838 106.222C214.838 105.711 214.757 105.236 214.594 104.795C214.432 104.354 214.182 103.998 213.844 103.726C213.506 103.454 213.075 103.318 212.551 103.318C212.027 103.318 211.597 103.454 211.259 103.726C210.92 103.998 210.67 104.354 210.508 104.795C210.345 105.236 210.264 105.711 210.264 106.222C210.264 106.732 210.345 107.206 210.508 107.643C210.67 108.081 210.92 108.434 211.259 108.702C211.597 108.971 212.027 109.105 212.551 109.105ZM218.976 105.406V110H217.802V102.364H218.936V103.557H219.035C219.214 103.169 219.486 102.857 219.851 102.622C220.215 102.384 220.686 102.264 221.263 102.264C221.78 102.264 222.232 102.37 222.62 102.582C223.008 102.791 223.309 103.109 223.525 103.537C223.74 103.961 223.848 104.498 223.848 105.148V110H222.675V105.227C222.675 104.627 222.519 104.16 222.207 103.825C221.896 103.487 221.468 103.318 220.925 103.318C220.55 103.318 220.215 103.399 219.92 103.562C219.629 103.724 219.398 103.961 219.229 104.273C219.06 104.584 218.976 104.962 218.976 105.406ZM231.401 104.074L230.347 104.372C230.281 104.196 230.183 104.026 230.054 103.86C229.928 103.691 229.755 103.552 229.537 103.442C229.318 103.333 229.038 103.278 228.696 103.278C228.229 103.278 227.84 103.386 227.528 103.602C227.22 103.814 227.066 104.084 227.066 104.412C227.066 104.704 227.172 104.934 227.384 105.103C227.596 105.272 227.927 105.413 228.378 105.526L229.512 105.804C230.194 105.97 230.703 106.223 231.038 106.565C231.373 106.903 231.54 107.339 231.54 107.872C231.54 108.31 231.414 108.701 231.162 109.045C230.914 109.39 230.566 109.662 230.118 109.861C229.671 110.06 229.15 110.159 228.557 110.159C227.778 110.159 227.134 109.99 226.623 109.652C226.113 109.314 225.79 108.82 225.654 108.17L226.767 107.892C226.873 108.303 227.074 108.611 227.369 108.817C227.667 109.022 228.057 109.125 228.537 109.125C229.084 109.125 229.518 109.009 229.84 108.777C230.165 108.542 230.327 108.26 230.327 107.932C230.327 107.667 230.234 107.445 230.049 107.266C229.863 107.083 229.578 106.947 229.194 106.858L227.921 106.56C227.221 106.394 226.708 106.137 226.38 105.789C226.055 105.438 225.892 104.999 225.892 104.472C225.892 104.041 226.013 103.66 226.255 103.328C226.501 102.997 226.834 102.737 227.255 102.548C227.679 102.359 228.159 102.264 228.696 102.264C229.452 102.264 230.045 102.43 230.476 102.761C230.91 103.093 231.219 103.53 231.401 104.074ZM240.644 102.364V103.358H236.528V102.364H240.644ZM237.761 110V101.31C237.761 100.872 237.864 100.508 238.069 100.216C238.275 99.9242 238.541 99.7055 238.869 99.5597C239.198 99.4138 239.544 99.3409 239.909 99.3409C240.197 99.3409 240.432 99.3641 240.615 99.4105C240.797 99.4569 240.933 99.5 241.022 99.5398L240.684 100.554C240.624 100.534 240.542 100.509 240.436 100.479C240.333 100.45 240.197 100.435 240.028 100.435C239.64 100.435 239.36 100.532 239.188 100.728C239.019 100.924 238.934 101.21 238.934 101.588V110H237.761ZM245.077 110.159C244.387 110.159 243.782 109.995 243.262 109.667C242.745 109.339 242.34 108.88 242.049 108.29C241.76 107.7 241.616 107.01 241.616 106.222C241.616 105.426 241.76 104.732 242.049 104.138C242.34 103.545 242.745 103.085 243.262 102.756C243.782 102.428 244.387 102.264 245.077 102.264C245.766 102.264 246.369 102.428 246.886 102.756C247.407 103.085 247.811 103.545 248.099 104.138C248.391 104.732 248.537 105.426 248.537 106.222C248.537 107.01 248.391 107.7 248.099 108.29C247.811 108.88 247.407 109.339 246.886 109.667C246.369 109.995 245.766 110.159 245.077 110.159ZM245.077 109.105C245.6 109.105 246.031 108.971 246.369 108.702C246.707 108.434 246.957 108.081 247.12 107.643C247.282 107.206 247.363 106.732 247.363 106.222C247.363 105.711 247.282 105.236 247.12 104.795C246.957 104.354 246.707 103.998 246.369 103.726C246.031 103.454 245.6 103.318 245.077 103.318C244.553 103.318 244.122 103.454 243.784 103.726C243.446 103.998 243.196 104.354 243.033 104.795C242.871 105.236 242.79 105.711 242.79 106.222C242.79 106.732 242.871 107.206 243.033 107.643C243.196 108.081 243.446 108.434 243.784 108.702C244.122 108.971 244.553 109.105 245.077 109.105ZM250.328 110V102.364H251.461V103.517H251.541C251.68 103.139 251.932 102.833 252.297 102.597C252.661 102.362 253.072 102.244 253.529 102.244C253.616 102.244 253.723 102.246 253.853 102.249C253.982 102.253 254.08 102.258 254.146 102.264V103.457C254.106 103.447 254.015 103.433 253.873 103.413C253.733 103.389 253.586 103.378 253.43 103.378C253.059 103.378 252.727 103.456 252.436 103.612C252.147 103.764 251.919 103.976 251.75 104.248C251.584 104.516 251.501 104.823 251.501 105.168V110H250.328ZM65.0739 131V123.364H66.2472V131H65.0739ZM65.6705 122.091C65.4418 122.091 65.2446 122.013 65.0788 121.857C64.9164 121.701 64.8352 121.514 64.8352 121.295C64.8352 121.077 64.9164 120.889 65.0788 120.734C65.2446 120.578 65.4418 120.5 65.6705 120.5C65.8991 120.5 66.0947 120.578 66.2571 120.734C66.4228 120.889 66.5057 121.077 66.5057 121.295C66.5057 121.514 66.4228 121.701 66.2571 121.857C66.0947 122.013 65.8991 122.091 65.6705 122.091ZM69.5694 126.406V131H68.3961V123.364H69.5297V124.557H69.6291C69.8081 124.169 70.0798 123.857 70.4444 123.622C70.809 123.384 71.2797 123.264 71.8564 123.264C72.3734 123.264 72.8258 123.37 73.2136 123.582C73.6014 123.791 73.903 124.109 74.1184 124.537C74.3339 124.961 74.4416 125.498 74.4416 126.148V131H73.2683V126.227C73.2683 125.627 73.1125 125.16 72.801 124.825C72.4894 124.487 72.0618 124.318 71.5183 124.318C71.1438 124.318 70.809 124.399 70.514 124.562C70.2224 124.724 69.992 124.961 69.823 125.273C69.6539 125.584 69.5694 125.962 69.5694 126.406ZM79.9862 123.364V124.358H75.8697V123.364H79.9862ZM77.1026 131V122.31C77.1026 121.872 77.2054 121.508 77.4109 121.216C77.6164 120.924 77.8832 120.705 78.2113 120.56C78.5394 120.414 78.8858 120.341 79.2504 120.341C79.5387 120.341 79.774 120.364 79.9563 120.411C80.1386 120.457 80.2745 120.5 80.364 120.54L80.0259 121.554C79.9663 121.534 79.8834 121.509 79.7773 121.479C79.6746 121.45 79.5387 121.435 79.3697 121.435C78.9819 121.435 78.7018 121.532 78.5295 121.728C78.3604 121.924 78.2759 122.21 78.2759 122.588V131H77.1026ZM81.6305 131V123.364H82.764V124.517H82.8436C82.9828 124.139 83.2347 123.833 83.5993 123.597C83.9638 123.362 84.3748 123.244 84.8322 123.244C84.9184 123.244 85.0261 123.246 85.1554 123.249C85.2846 123.253 85.3824 123.258 85.4487 123.264V124.457C85.4089 124.447 85.3178 124.433 85.1752 124.413C85.036 124.389 84.8886 124.378 84.7328 124.378C84.3616 124.378 84.0301 124.456 83.7385 124.612C83.4501 124.764 83.2214 124.976 83.0524 125.248C82.8867 125.516 82.8038 125.823 82.8038 126.168V131H81.6305ZM89.0866 131.179C88.6027 131.179 88.1636 131.088 87.7692 130.906C87.3748 130.72 87.0616 130.453 86.8295 130.105C86.5975 129.754 86.4815 129.33 86.4815 128.832C86.4815 128.395 86.5677 128.04 86.7401 127.768C86.9124 127.493 87.1428 127.278 87.4311 127.122C87.7195 126.966 88.0376 126.85 88.3857 126.774C88.737 126.695 89.09 126.632 89.4446 126.585C89.9086 126.526 90.2848 126.481 90.5732 126.451C90.8648 126.418 91.0769 126.363 91.2095 126.287C91.3454 126.211 91.4134 126.078 91.4134 125.889V125.849C91.4134 125.359 91.2791 124.978 91.0107 124.706C90.7455 124.434 90.3428 124.298 89.8026 124.298C89.2424 124.298 88.8033 124.421 88.4851 124.666C88.1669 124.911 87.9432 125.173 87.8139 125.452L86.7003 125.054C86.8991 124.59 87.1643 124.229 87.4957 123.97C87.8305 123.708 88.1951 123.526 88.5895 123.423C88.9872 123.317 89.3783 123.264 89.7628 123.264C90.008 123.264 90.2898 123.294 90.608 123.354C90.9295 123.41 91.2393 123.528 91.5376 123.707C91.8393 123.886 92.0895 124.156 92.2884 124.517C92.4872 124.878 92.5866 125.362 92.5866 125.969V131H91.4134V129.966H91.3537C91.2741 130.132 91.1416 130.309 90.956 130.498C90.7704 130.687 90.5234 130.848 90.2152 130.98C89.907 131.113 89.5308 131.179 89.0866 131.179ZM89.2656 130.125C89.7296 130.125 90.1207 130.034 90.4389 129.852C90.7604 129.669 91.0024 129.434 91.1648 129.146C91.3305 128.857 91.4134 128.554 91.4134 128.236V127.162C91.3636 127.222 91.2543 127.276 91.0852 127.326C90.9195 127.372 90.7273 127.414 90.5085 127.45C90.2931 127.483 90.0826 127.513 89.8771 127.54C89.675 127.563 89.5109 127.583 89.3849 127.599C89.08 127.639 88.795 127.704 88.5298 127.793C88.268 127.879 88.0559 128.01 87.8935 128.186C87.7344 128.358 87.6548 128.594 87.6548 128.892C87.6548 129.3 87.8056 129.608 88.1072 129.817C88.4122 130.022 88.7983 130.125 89.2656 130.125ZM100.137 125.074L99.0833 125.372C99.017 125.196 98.9192 125.026 98.79 124.86C98.664 124.691 98.4917 124.552 98.2729 124.442C98.0542 124.333 97.7741 124.278 97.4327 124.278C96.9654 124.278 96.5759 124.386 96.2644 124.602C95.9561 124.814 95.802 125.084 95.802 125.412C95.802 125.704 95.9081 125.934 96.1202 126.103C96.3323 126.272 96.6638 126.413 97.1145 126.526L98.248 126.804C98.9308 126.97 99.4396 127.223 99.7743 127.565C100.109 127.903 100.276 128.339 100.276 128.872C100.276 129.31 100.151 129.701 99.8986 130.045C99.65 130.39 99.302 130.662 98.8546 130.861C98.4071 131.06 97.8868 131.159 97.2935 131.159C96.5146 131.159 95.87 130.99 95.3596 130.652C94.8491 130.314 94.526 129.82 94.3901 129.17L95.5037 128.892C95.6098 129.303 95.8103 129.611 96.1053 129.817C96.4036 130.022 96.793 130.125 97.2736 130.125C97.8205 130.125 98.2547 130.009 98.5762 129.777C98.901 129.542 99.0634 129.26 99.0634 128.932C99.0634 128.667 98.9706 128.445 98.785 128.266C98.5994 128.083 98.3143 127.947 97.9299 127.858L96.6571 127.56C95.9578 127.394 95.4441 127.137 95.1159 126.789C94.7911 126.438 94.6287 125.999 94.6287 125.472C94.6287 125.041 94.7497 124.66 94.9917 124.328C95.2369 123.997 95.57 123.737 95.9909 123.548C96.4152 123.359 96.8958 123.264 97.4327 123.264C98.1884 123.264 98.7817 123.43 99.2125 123.761C99.6467 124.093 99.955 124.53 100.137 125.074ZM105.364 123.364V124.358H101.406V123.364H105.364ZM102.56 121.534H103.733V128.812C103.733 129.144 103.781 129.393 103.877 129.558C103.977 129.721 104.103 129.83 104.255 129.886C104.411 129.939 104.575 129.966 104.747 129.966C104.876 129.966 104.982 129.959 105.065 129.946C105.148 129.929 105.214 129.916 105.264 129.906L105.503 130.96C105.423 130.99 105.312 131.02 105.17 131.05C105.027 131.083 104.847 131.099 104.628 131.099C104.296 131.099 103.972 131.028 103.653 130.886C103.339 130.743 103.077 130.526 102.868 130.234C102.662 129.943 102.56 129.575 102.56 129.131V121.534ZM107.129 131V123.364H108.262V124.517H108.342C108.481 124.139 108.733 123.833 109.097 123.597C109.462 123.362 109.873 123.244 110.33 123.244C110.416 123.244 110.524 123.246 110.653 123.249C110.783 123.253 110.88 123.258 110.947 123.264V124.457C110.907 124.447 110.816 124.433 110.673 124.413C110.534 124.389 110.387 124.378 110.231 124.378C109.86 124.378 109.528 124.456 109.237 124.612C108.948 124.764 108.719 124.976 108.55 125.248C108.385 125.516 108.302 125.823 108.302 126.168V131H107.129ZM117.15 127.878V123.364H118.323V131H117.15V129.707H117.07C116.892 130.095 116.613 130.425 116.235 130.697C115.857 130.965 115.38 131.099 114.803 131.099C114.326 131.099 113.902 130.995 113.531 130.786C113.16 130.574 112.868 130.256 112.656 129.832C112.444 129.404 112.338 128.866 112.338 128.216V123.364H113.511V128.136C113.511 128.693 113.667 129.137 113.978 129.469C114.293 129.8 114.694 129.966 115.181 129.966C115.473 129.966 115.77 129.891 116.071 129.742C116.376 129.593 116.631 129.364 116.837 129.056C117.046 128.748 117.15 128.355 117.15 127.878ZM123.575 131.159C122.859 131.159 122.242 130.99 121.725 130.652C121.208 130.314 120.81 129.848 120.532 129.255C120.254 128.662 120.114 127.984 120.114 127.222C120.114 126.446 120.257 125.762 120.542 125.168C120.83 124.572 121.231 124.106 121.745 123.771C122.262 123.433 122.865 123.264 123.555 123.264C124.092 123.264 124.576 123.364 125.006 123.562C125.437 123.761 125.79 124.04 126.065 124.398C126.34 124.756 126.511 125.173 126.577 125.651H125.404C125.315 125.303 125.116 124.994 124.808 124.726C124.503 124.454 124.092 124.318 123.575 124.318C123.117 124.318 122.716 124.437 122.371 124.676C122.03 124.911 121.763 125.245 121.571 125.675C121.382 126.103 121.288 126.605 121.288 127.182C121.288 127.772 121.38 128.286 121.566 128.723C121.755 129.161 122.02 129.5 122.362 129.742C122.706 129.984 123.111 130.105 123.575 130.105C123.879 130.105 124.156 130.052 124.405 129.946C124.653 129.84 124.864 129.688 125.036 129.489C125.209 129.29 125.331 129.051 125.404 128.773H126.577C126.511 129.223 126.347 129.629 126.085 129.991C125.827 130.349 125.484 130.634 125.056 130.846C124.632 131.055 124.138 131.159 123.575 131.159ZM131.614 123.364V124.358H127.656V123.364H131.614ZM128.81 121.534H129.983V128.812C129.983 129.144 130.031 129.393 130.127 129.558C130.227 129.721 130.353 129.83 130.505 129.886C130.661 129.939 130.825 129.966 130.997 129.966C131.126 129.966 131.232 129.959 131.315 129.946C131.398 129.929 131.464 129.916 131.514 129.906L131.753 130.96C131.673 130.99 131.562 131.02 131.42 131.05C131.277 131.083 131.097 131.099 130.878 131.099C130.546 131.099 130.222 131.028 129.903 130.886C129.589 130.743 129.327 130.526 129.118 130.234C128.912 129.943 128.81 129.575 128.81 129.131V121.534ZM138.191 127.878V123.364H139.364V131H138.191V129.707H138.112C137.933 130.095 137.654 130.425 137.276 130.697C136.898 130.965 136.421 131.099 135.844 131.099C135.367 131.099 134.943 130.995 134.572 130.786C134.201 130.574 133.909 130.256 133.697 129.832C133.485 129.404 133.379 128.866 133.379 128.216V123.364H134.552V128.136C134.552 128.693 134.708 129.137 135.019 129.469C135.334 129.8 135.735 129.966 136.222 129.966C136.514 129.966 136.811 129.891 137.112 129.742C137.417 129.593 137.672 129.364 137.878 129.056C138.087 128.748 138.191 128.355 138.191 127.878ZM141.513 131V123.364H142.647V124.517H142.726C142.866 124.139 143.117 123.833 143.482 123.597C143.847 123.362 144.258 123.244 144.715 123.244C144.801 123.244 144.909 123.246 145.038 123.249C145.167 123.253 145.265 123.258 145.331 123.264V124.457C145.292 124.447 145.201 124.433 145.058 124.413C144.919 124.389 144.771 124.378 144.616 124.378C144.244 124.378 143.913 124.456 143.621 124.612C143.333 124.764 143.104 124.976 142.935 125.248C142.769 125.516 142.687 125.823 142.687 126.168V131H141.513ZM149.692 131.159C148.956 131.159 148.321 130.997 147.787 130.672C147.257 130.344 146.848 129.886 146.559 129.3C146.274 128.71 146.132 128.024 146.132 127.241C146.132 126.459 146.274 125.77 146.559 125.173C146.848 124.573 147.249 124.106 147.763 123.771C148.28 123.433 148.883 123.264 149.572 123.264C149.97 123.264 150.363 123.33 150.751 123.463C151.138 123.596 151.491 123.811 151.809 124.109C152.128 124.404 152.381 124.795 152.57 125.283C152.759 125.77 152.854 126.37 152.854 127.082V127.58H146.967V126.565H151.66C151.66 126.134 151.574 125.75 151.402 125.412C151.233 125.074 150.991 124.807 150.676 124.612C150.364 124.416 149.997 124.318 149.572 124.318C149.105 124.318 148.701 124.434 148.359 124.666C148.021 124.895 147.761 125.193 147.579 125.561C147.396 125.929 147.305 126.323 147.305 126.744V127.42C147.305 127.997 147.405 128.486 147.604 128.887C147.806 129.285 148.086 129.588 148.444 129.797C148.802 130.002 149.218 130.105 149.692 130.105C150 130.105 150.278 130.062 150.527 129.976C150.779 129.886 150.996 129.754 151.178 129.578C151.36 129.399 151.501 129.177 151.601 128.912L152.734 129.23C152.615 129.615 152.414 129.953 152.133 130.244C151.851 130.533 151.503 130.758 151.089 130.92C150.674 131.08 150.209 131.159 149.692 131.159ZM158.576 131V123.364H159.709V124.557H159.809C159.968 124.149 160.225 123.833 160.579 123.607C160.934 123.379 161.36 123.264 161.857 123.264C162.361 123.264 162.78 123.379 163.115 123.607C163.453 123.833 163.716 124.149 163.905 124.557H163.985C164.18 124.162 164.474 123.849 164.865 123.617C165.256 123.382 165.725 123.264 166.272 123.264C166.955 123.264 167.513 123.478 167.947 123.906C168.381 124.33 168.599 124.991 168.599 125.889V131H167.425V125.889C167.425 125.326 167.271 124.923 166.963 124.681C166.655 124.439 166.292 124.318 165.874 124.318C165.337 124.318 164.921 124.481 164.626 124.805C164.331 125.127 164.184 125.535 164.184 126.028V131H162.991V125.77C162.991 125.336 162.85 124.986 162.568 124.721C162.286 124.452 161.923 124.318 161.479 124.318C161.174 124.318 160.889 124.399 160.624 124.562C160.362 124.724 160.15 124.95 159.988 125.238C159.829 125.523 159.749 125.853 159.749 126.227V131H158.576ZM172.991 131.179C172.507 131.179 172.068 131.088 171.673 130.906C171.279 130.72 170.966 130.453 170.734 130.105C170.502 129.754 170.386 129.33 170.386 128.832C170.386 128.395 170.472 128.04 170.644 127.768C170.817 127.493 171.047 127.278 171.335 127.122C171.624 126.966 171.942 126.85 172.29 126.774C172.641 126.695 172.994 126.632 173.349 126.585C173.813 126.526 174.189 126.481 174.477 126.451C174.769 126.418 174.981 126.363 175.114 126.287C175.25 126.211 175.318 126.078 175.318 125.889V125.849C175.318 125.359 175.183 124.978 174.915 124.706C174.65 124.434 174.247 124.298 173.707 124.298C173.147 124.298 172.708 124.421 172.389 124.666C172.071 124.911 171.847 125.173 171.718 125.452L170.605 125.054C170.803 124.59 171.069 124.229 171.4 123.97C171.735 123.708 172.099 123.526 172.494 123.423C172.892 123.317 173.283 123.264 173.667 123.264C173.912 123.264 174.194 123.294 174.512 123.354C174.834 123.41 175.144 123.528 175.442 123.707C175.744 123.886 175.994 124.156 176.193 124.517C176.392 124.878 176.491 125.362 176.491 125.969V131H175.318V129.966H175.258C175.178 130.132 175.046 130.309 174.86 130.498C174.675 130.687 174.428 130.848 174.119 130.98C173.811 131.113 173.435 131.179 172.991 131.179ZM173.17 130.125C173.634 130.125 174.025 130.034 174.343 129.852C174.665 129.669 174.907 129.434 175.069 129.146C175.235 128.857 175.318 128.554 175.318 128.236V127.162C175.268 127.222 175.159 127.276 174.99 127.326C174.824 127.372 174.632 127.414 174.413 127.45C174.197 127.483 173.987 127.513 173.781 127.54C173.579 127.563 173.415 127.583 173.289 127.599C172.984 127.639 172.699 127.704 172.434 127.793C172.172 127.879 171.96 128.01 171.798 128.186C171.639 128.358 171.559 128.594 171.559 128.892C171.559 129.3 171.71 129.608 172.012 129.817C172.316 130.022 172.703 130.125 173.17 130.125ZM178.632 133.864V123.364H179.766V124.577H179.905C179.991 124.444 180.111 124.275 180.263 124.07C180.419 123.861 180.641 123.675 180.929 123.513C181.221 123.347 181.615 123.264 182.113 123.264C182.756 123.264 183.322 123.425 183.813 123.746C184.303 124.068 184.686 124.524 184.961 125.114C185.236 125.704 185.374 126.4 185.374 127.202C185.374 128.01 185.236 128.711 184.961 129.305C184.686 129.895 184.305 130.352 183.818 130.677C183.331 130.998 182.769 131.159 182.132 131.159C181.642 131.159 181.249 131.078 180.954 130.915C180.659 130.75 180.432 130.562 180.273 130.354C180.114 130.142 179.991 129.966 179.905 129.827H179.806V133.864H178.632ZM179.786 127.182C179.786 127.759 179.87 128.267 180.039 128.708C180.208 129.146 180.455 129.489 180.78 129.737C181.105 129.982 181.503 130.105 181.973 130.105C182.464 130.105 182.873 129.976 183.201 129.717C183.533 129.455 183.781 129.104 183.947 128.663C184.116 128.219 184.201 127.725 184.201 127.182C184.201 126.645 184.118 126.161 183.952 125.73C183.79 125.296 183.543 124.953 183.211 124.701C182.883 124.446 182.471 124.318 181.973 124.318C181.496 124.318 181.095 124.439 180.77 124.681C180.445 124.92 180.2 125.254 180.034 125.685C179.869 126.113 179.786 126.612 179.786 127.182ZM187.164 133.864V123.364H188.297V124.577H188.436C188.523 124.444 188.642 124.275 188.794 124.07C188.95 123.861 189.172 123.675 189.461 123.513C189.752 123.347 190.147 123.264 190.644 123.264C191.287 123.264 191.854 123.425 192.344 123.746C192.835 124.068 193.217 124.524 193.493 125.114C193.768 125.704 193.905 126.4 193.905 127.202C193.905 128.01 193.768 128.711 193.493 129.305C193.217 129.895 192.836 130.352 192.349 130.677C191.862 130.998 191.3 131.159 190.664 131.159C190.173 131.159 189.78 131.078 189.485 130.915C189.19 130.75 188.963 130.562 188.804 130.354C188.645 130.142 188.523 129.966 188.436 129.827H188.337V133.864H187.164ZM188.317 127.182C188.317 127.759 188.402 128.267 188.571 128.708C188.74 129.146 188.987 129.489 189.311 129.737C189.636 129.982 190.034 130.105 190.505 130.105C190.995 130.105 191.404 129.976 191.733 129.717C192.064 129.455 192.313 129.104 192.478 128.663C192.647 128.219 192.732 127.725 192.732 127.182C192.732 126.645 192.649 126.161 192.483 125.73C192.321 125.296 192.074 124.953 191.743 124.701C191.414 124.446 191.002 124.318 190.505 124.318C190.027 124.318 189.626 124.439 189.301 124.681C188.977 124.92 188.731 125.254 188.566 125.685C188.4 126.113 188.317 126.612 188.317 127.182ZM195.695 131V123.364H196.868V131H195.695ZM196.292 122.091C196.063 122.091 195.866 122.013 195.7 121.857C195.538 121.701 195.456 121.514 195.456 121.295C195.456 121.077 195.538 120.889 195.7 120.734C195.866 120.578 196.063 120.5 196.292 120.5C196.52 120.5 196.716 120.578 196.878 120.734C197.044 120.889 197.127 121.077 197.127 121.295C197.127 121.514 197.044 121.701 196.878 121.857C196.716 122.013 196.52 122.091 196.292 122.091ZM200.191 126.406V131H199.017V123.364H200.151V124.557H200.25C200.429 124.169 200.701 123.857 201.066 123.622C201.43 123.384 201.901 123.264 202.477 123.264C202.994 123.264 203.447 123.37 203.835 123.582C204.222 123.791 204.524 124.109 204.74 124.537C204.955 124.961 205.063 125.498 205.063 126.148V131H203.889V126.227C203.889 125.627 203.734 125.16 203.422 124.825C203.11 124.487 202.683 124.318 202.139 124.318C201.765 124.318 201.43 124.399 201.135 124.562C200.843 124.724 200.613 124.961 200.444 125.273C200.275 125.584 200.191 125.962 200.191 126.406ZM210.289 134.023C209.722 134.023 209.235 133.95 208.827 133.804C208.42 133.661 208.08 133.473 207.808 133.237C207.54 133.005 207.326 132.757 207.167 132.491L208.102 131.835C208.208 131.974 208.342 132.134 208.504 132.312C208.667 132.495 208.889 132.652 209.17 132.785C209.455 132.921 209.828 132.989 210.289 132.989C210.906 132.989 211.414 132.839 211.815 132.541C212.216 132.243 212.417 131.776 212.417 131.139V129.588H212.317C212.231 129.727 212.109 129.9 211.95 130.105C211.794 130.307 211.568 130.488 211.273 130.647C210.982 130.803 210.587 130.881 210.09 130.881C209.474 130.881 208.92 130.735 208.43 130.443C207.942 130.152 207.556 129.727 207.271 129.17C206.99 128.614 206.849 127.937 206.849 127.142C206.849 126.36 206.986 125.679 207.261 125.099C207.536 124.515 207.919 124.065 208.41 123.746C208.9 123.425 209.467 123.264 210.11 123.264C210.607 123.264 211.002 123.347 211.293 123.513C211.588 123.675 211.814 123.861 211.969 124.07C212.129 124.275 212.251 124.444 212.337 124.577H212.457V123.364H213.59V131.219C213.59 131.875 213.441 132.409 213.143 132.82C212.848 133.234 212.45 133.537 211.95 133.729C211.452 133.925 210.899 134.023 210.289 134.023ZM210.249 129.827C210.72 129.827 211.118 129.719 211.442 129.504C211.767 129.288 212.014 128.978 212.183 128.574C212.352 128.17 212.437 127.686 212.437 127.122C212.437 126.572 212.354 126.086 212.188 125.665C212.022 125.245 211.777 124.915 211.452 124.676C211.128 124.437 210.727 124.318 210.249 124.318C209.752 124.318 209.338 124.444 209.006 124.696C208.678 124.948 208.431 125.286 208.266 125.71C208.103 126.134 208.022 126.605 208.022 127.122C208.022 127.652 208.105 128.121 208.271 128.529C208.44 128.933 208.688 129.252 209.016 129.484C209.348 129.712 209.759 129.827 210.249 129.827Z" fill="#090909"/>
<line x1="64" y1="171.5" x2="306" y2="171.5" stroke="black" stroke-opacity="0.14902"/>
<rect x="64.5" y="188.5" width="55" height="20" rx="10" fill="#10B981" fill-opacity="0.12549"/>
<rect x="64.5" y="188.5" width="55" height="20" rx="10" stroke="#10B981"/>
<path d="M82.7074 202.207C82.5198 202.394 82.2655 202.5 82.0002 202.5H73.9996C73.7344 202.5 73.48 202.394 73.2924 202.207C73.1049 202.019 72.9995 201.765 72.9995 201.5V195C72.9995 194.735 73.1049 194.48 73.2924 194.293C73.48 194.105 73.7344 194 73.9996 194H75.9647C76.1303 194 76.2933 194.041 76.439 194.12C76.5848 194.198 76.7088 194.312 76.7998 194.45L77.2048 195.05C77.2968 195.19 77.4224 195.304 77.57 195.383C77.7177 195.461 77.8827 195.502 78.0499 195.5H82.0002C82.2655 195.5 82.5198 195.605 82.7074 195.793C82.8949 195.98 83.0003 196.235 83.0003 196.5V201.5C83.0003 201.765 82.8949 202.019 82.7074 202.207Z" stroke="#10B981" stroke-width="2" stroke-linecap="round"/>
<path d="M88.6484 203V201.781L91.4961 199.145C91.7383 198.91 91.9414 198.699 92.1055 198.512C92.2721 198.324 92.3984 198.141 92.4844 197.961C92.5703 197.779 92.6133 197.582 92.6133 197.371C92.6133 197.137 92.5599 196.935 92.4531 196.766C92.3464 196.594 92.2005 196.462 92.0156 196.371C91.8307 196.277 91.6211 196.23 91.3867 196.23C91.1419 196.23 90.9284 196.28 90.7461 196.379C90.5638 196.478 90.4232 196.62 90.3242 196.805C90.2253 196.99 90.1758 197.21 90.1758 197.465H88.5703C88.5703 196.941 88.6888 196.487 88.9258 196.102C89.1628 195.716 89.4948 195.418 89.9219 195.207C90.349 194.996 90.8411 194.891 91.3984 194.891C91.9714 194.891 92.4701 194.992 92.8945 195.195C93.3216 195.396 93.6536 195.674 93.8906 196.031C94.1276 196.388 94.2461 196.797 94.2461 197.258C94.2461 197.56 94.1862 197.858 94.0664 198.152C93.9492 198.447 93.7396 198.773 93.4375 199.133C93.1354 199.49 92.7096 199.918 92.1602 200.418L90.9922 201.562V201.617H94.3516V203H88.6484ZM101.623 194.625L99.0449 204.203H97.6113L100.189 194.625H101.623ZM104.955 203V201.781L107.803 199.145C108.045 198.91 108.248 198.699 108.412 198.512C108.579 198.324 108.705 198.141 108.791 197.961C108.877 197.779 108.92 197.582 108.92 197.371C108.92 197.137 108.867 196.935 108.76 196.766C108.653 196.594 108.507 196.462 108.322 196.371C108.137 196.277 107.928 196.23 107.693 196.23C107.449 196.23 107.235 196.28 107.053 196.379C106.87 196.478 106.73 196.62 106.631 196.805C106.532 196.99 106.482 197.21 106.482 197.465H104.877C104.877 196.941 104.995 196.487 105.232 196.102C105.469 195.716 105.801 195.418 106.229 195.207C106.656 194.996 107.148 194.891 107.705 194.891C108.278 194.891 108.777 194.992 109.201 195.195C109.628 195.396 109.96 195.674 110.197 196.031C110.434 196.388 110.553 196.797 110.553 197.258C110.553 197.56 110.493 197.858 110.373 198.152C110.256 198.447 110.046 198.773 109.744 199.133C109.442 199.49 109.016 199.918 108.467 200.418L107.299 201.562V201.617H110.658V203H104.955Z" fill="#10B981"/>
</g>
<defs>
<filter id="filter0_dd_1464_1516" x="0" y="0" width="370" height="273" filterUnits="userSpaceOnUse" color-interpolation-filters="sRGB">
<feFlood flood-opacity="0" result="BackgroundImageFix"/>
<feColorMatrix in="SourceAlpha" type="matrix" values="0 0 0 0 0 0 0 0 0 0 0 0 0 0 0 0 0 0 127 0" result="hardAlpha"/>
<feOffset dy="12"/>
<feGaussianBlur stdDeviation="12"/>
<feComposite in2="hardAlpha" operator="out"/>
<feColorMatrix type="matrix" values="0 0 0 0 0 0 0 0 0 0 0 0 0 0 0 0 0 0 0.031 0"/>
<feBlend mode="normal" in2="BackgroundImageFix" result="effect1_dropShadow_1464_1516"/>
<feColorMatrix in="SourceAlpha" type="matrix" values="0 0 0 0 0 0 0 0 0 0 0 0 0 0 0 0 0 0 127 0" result="hardAlpha"/>
<feOffset/>
<feGaussianBlur stdDeviation="20"/>
<feComposite in2="hardAlpha" operator="out"/>
<feColorMatrix type="matrix" values="0 0 0 0 0.388235 0 0 0 0 0.4 0 0 0 0 0.945098 0 0 0 0.0784314 0"/>
<feBlend mode="normal" in2="effect1_dropShadow_1464_1516" result="effect2_dropShadow_1464_1516"/>
<feBlend mode="normal" in="SourceGraphic" in2="effect2_dropShadow_1464_1516" result="shape"/>
</filter>
<clipPath id="bgblur_0_1464_1516_clip_path" transform="translate(0 0)"><rect x="40" y="40" width="290" height="193" rx="16"/>
</clipPath></defs>
</svg>
