<svg width="81" height="29" viewBox="0 0 81 29" fill="none" xmlns="http://www.w3.org/2000/svg">
<path d="M74.4786 28.6214V8.59399H80.6931V28.6214H74.4786ZM77.5858 6.7389C76.6396 6.7389 75.834 6.41079 75.1691 5.75457C74.5041 5.09835 74.1717 4.30331 74.1717 3.36945C74.1717 2.4356 74.5041 1.64056 75.1691 0.984335C75.834 0.328112 76.6396 0 77.5858 0C78.5321 0 79.3377 0.328112 80.0026 0.984335C80.6675 1.64056 81 2.4356 81 3.36945C81 4.30331 80.6675 5.09835 80.0026 5.75457C79.3377 6.41079 78.5321 6.7389 77.5858 6.7389Z" fill="#254DEF"/>
<path d="M60.3184 28.6214V13.705H55.8685V8.59399H60.3184V7.38251C60.3184 5.01001 61.0217 3.2054 62.4283 1.96867C63.8605 0.706702 65.9064 0.0757192 68.5661 0.0757192C69.1032 0.0757192 69.6786 0.113578 70.2924 0.189295C70.9317 0.239774 71.456 0.328113 71.8652 0.454309V5.52742C71.3793 5.42646 70.9445 5.36336 70.5609 5.33812C70.2029 5.28764 69.8193 5.2624 69.4101 5.2624C68.4638 5.2624 67.7477 5.4517 67.2618 5.83029C66.7759 6.18364 66.533 6.7389 66.533 7.49608V8.59399H71.8652V13.705H66.533V28.6214H60.3184Z" fill="#254DEF"/>
<path d="M47.0562 28.6214V8.59399H53.2707V28.6214H47.0562ZM50.1635 6.7389C49.2172 6.7389 48.4116 6.41079 47.7467 5.75457C47.0818 5.09835 46.7493 4.30331 46.7493 3.36945C46.7493 2.4356 47.0818 1.64056 47.7467 0.984335C48.4116 0.328112 49.2172 0 50.1635 0C51.1097 0 51.9153 0.328112 52.5802 0.984335C53.2452 1.64056 53.5776 2.4356 53.5776 3.36945C53.5776 4.30331 53.2452 5.09835 52.5802 5.75457C51.9153 6.41079 51.1097 6.7389 50.1635 6.7389Z" fill="#254DEF"/>
<path d="M23.6048 28.6214V8.59399H29.8194V9.95692C31.3538 8.79591 33.1696 8.2154 35.2667 8.2154C36.8523 8.2154 38.2461 8.55614 39.4481 9.2376C40.6756 9.91906 41.6347 10.8655 42.3252 12.077C43.0157 13.2885 43.3609 14.6893 43.3609 16.2794V28.6214H37.1464V17.1123C37.1464 16.0017 36.8139 15.1184 36.149 14.4621C35.4841 13.8059 34.589 13.4778 33.4637 13.4778C32.6709 13.4778 31.9676 13.6166 31.3538 13.8943C30.7656 14.1719 30.2541 14.5631 29.8194 15.0679V28.6214H23.6048Z" fill="#254DEF"/>
<path d="M8.09425 29C6.50864 29 5.10206 28.6593 3.8745 27.9778C2.67251 27.2963 1.72626 26.3499 1.03576 25.1384C0.345252 23.9017 0 22.5009 0 20.936V8.59399H6.21454V20.1031C6.21454 21.1884 6.547 22.0718 7.21193 22.7533C7.90244 23.4095 8.79754 23.7376 9.89723 23.7376C10.69 23.7376 11.3933 23.5988 12.0071 23.3211C12.6209 23.0435 13.1324 22.6523 13.5416 22.1475V8.59399H19.7561V28.6214H13.5416V27.2585C12.0071 28.4195 10.1913 29 8.09425 29Z" fill="#254DEF"/>
</svg>
