<svg width="547" height="814" viewBox="0 0 547 814" fill="none" xmlns="http://www.w3.org/2000/svg">
<g opacity="0.6">
<path d="M220.468 754.621C180.026 747.793 142.924 723.43 121.274 684.92C101.297 649.384 98.45 608.868 110.061 572.884M136.596 525.113C147.133 512.676 160.025 501.869 175.07 493.411C221.217 467.468 275.721 470.32 317.811 496.16" stroke="#FAFCFF" stroke-width="0.93319" stroke-dasharray="1.87 1.87"/>
<path d="M272.777 753.942C286.611 751.071 300.246 746.054 313.22 738.76C362.722 710.931 388.914 657.668 384.598 604.598" stroke="#FAFCFF" stroke-width="0.93319" stroke-dasharray="1.87 1.87"/>
<path d="M324.907 499.95C325.086 500.261 324.862 500.649 324.503 500.65L312.038 500.65C311.679 500.65 311.454 500.261 311.634 499.95L317.867 489.154C318.046 488.844 318.495 488.844 318.675 489.155L324.907 499.95Z" fill="white" stroke="#FAFCFF" stroke-width="0.311063"/>
<path d="M283.076 758.099C283.155 758.449 282.826 758.754 282.483 758.647L270.58 754.946C270.237 754.84 270.138 754.401 270.402 754.158L279.559 745.7C279.823 745.457 280.252 745.59 280.331 745.941L283.076 758.099Z" fill="white" stroke="#FAFCFF" stroke-width="0.311063"/>
<path d="M111.67 568.381C111.947 568.153 112.367 568.31 112.427 568.663L114.499 580.955C114.559 581.309 114.212 581.596 113.876 581.47L102.194 577.118C101.858 576.992 101.784 576.55 102.061 576.321L111.67 568.381Z" fill="white" stroke="#FAFCFF" stroke-width="0.311063"/>
</g>
<path d="M283.19 726.46C250.981 738.449 213.851 736.314 182.007 717.439C152.622 700.022 133.581 671.814 126.931 640.838M126.173 595.054C128.608 581.615 133.435 568.371 140.809 555.931C163.428 517.771 204.174 497.006 245.543 498.122" stroke="#FFB73A" stroke-width="0.93319" stroke-dasharray="1.87 1.87"/>
<path d="M320.863 704.051C329.699 696.172 337.492 686.818 343.851 676.089C368.113 635.156 364.805 585.532 339.438 548.829" stroke="#FFB73A" stroke-width="0.93319" stroke-dasharray="1.87 1.87"/>
<path d="M252.117 497.835C252.428 498.014 252.427 498.463 252.117 498.642L243.374 503.69C243.063 503.87 242.674 503.646 242.673 503.287L242.673 493.191C242.673 492.832 243.063 492.607 243.374 492.787L252.117 497.835Z" fill="#FFB73A" stroke="#FFB73A" stroke-width="0.311063"/>
<path d="M329.943 702.642C330.186 702.906 330.053 703.334 329.703 703.414L319.855 705.637C319.505 705.716 319.2 705.387 319.306 705.044L322.304 695.404C322.411 695.061 322.849 694.962 323.093 695.226L329.943 702.642Z" fill="#FFB73A" stroke="#FFB73A" stroke-width="0.311063"/>
<path d="M126.175 637.068C126.301 636.732 126.743 636.658 126.972 636.934L133.402 644.717C133.631 644.994 133.475 645.415 133.121 645.474L123.166 647.152C122.812 647.212 122.525 646.865 122.651 646.529L126.175 637.068Z" fill="#FFB73A" stroke="#FFB73A" stroke-width="0.311063"/>
<g opacity="0.6">
<path d="M161.911 353.659C138.142 320.233 129.134 276.771 141.056 234.232C152.058 194.978 178.694 164.316 212.348 147.082M264.891 132.066C281.136 130.722 297.893 132.196 314.512 136.854C365.488 151.141 402.011 191.697 413.503 239.731" stroke="#FAFCFF" stroke-width="0.93319" stroke-dasharray="1.87 1.87"/>
<path d="M199.378 390.166C211.19 397.919 224.38 404.012 238.712 408.029C293.393 423.354 349.576 404.212 384.05 363.634" stroke="#FAFCFF" stroke-width="0.93319" stroke-dasharray="1.87 1.87"/>
<path d="M415.84 247.429C415.747 247.775 415.313 247.891 415.06 247.638L406.245 238.824C405.991 238.57 406.107 238.136 406.454 238.043L418.495 234.817C418.842 234.724 419.159 235.042 419.066 235.389L415.84 247.429Z" fill="white" stroke="#FAFCFF" stroke-width="0.311063"/>
<path d="M203.722 400.389C203.53 400.692 203.082 400.674 202.915 400.357L197.115 389.323C196.948 389.005 197.188 388.625 197.547 388.639L210.003 389.134C210.361 389.149 210.57 389.546 210.378 389.85L203.722 400.389Z" fill="white" stroke="#FAFCFF" stroke-width="0.311063"/>
<path d="M216.67 145.036C217.027 145.07 217.214 145.478 217.006 145.77L209.779 155.927C209.571 156.22 209.124 156.177 208.975 155.851L203.792 144.513C203.643 144.187 203.904 143.821 204.261 143.855L216.67 145.036Z" fill="white" stroke="#FAFCFF" stroke-width="0.311063"/>
</g>
<path d="M226.174 378.097C194.922 363.8 170.176 336.035 161.006 300.171C152.544 267.077 159.026 233.667 176.227 207.061M208.064 174.151C219.289 166.37 232.067 160.419 246.079 156.836C289.055 145.847 332.55 159.975 361.013 190.017" stroke="#FFB73A" stroke-width="0.93319" stroke-dasharray="1.87 1.87"/>
<path d="M268.659 388.89C280.479 389.567 292.603 388.463 304.686 385.373C350.786 373.585 383.536 336.156 391.552 292.267" stroke="#FFB73A" stroke-width="0.93319" stroke-dasharray="1.87 1.87"/>
<path d="M365.865 194.462C365.958 194.809 365.641 195.126 365.294 195.034L355.542 192.421C355.195 192.328 355.079 191.894 355.332 191.64L362.471 184.501C362.725 184.248 363.159 184.364 363.252 184.711L365.865 194.462Z" fill="#FFB73A" stroke="#FFB73A" stroke-width="0.311063"/>
<path d="M276.075 394.314C276.061 394.673 275.664 394.882 275.36 394.69L266.824 389.299C266.521 389.107 266.538 388.659 266.856 388.492L275.792 383.795C276.11 383.628 276.49 383.868 276.476 384.227L276.075 394.314Z" fill="#FFB73A" stroke="#FFB73A" stroke-width="0.311063"/>
<path d="M178.358 203.862C178.684 203.713 179.05 203.973 179.016 204.33L178.06 214.38C178.026 214.738 177.618 214.925 177.325 214.717L169.099 208.864C168.807 208.655 168.849 208.208 169.176 208.059L178.358 203.862Z" fill="#FFB73A" stroke="#FFB73A" stroke-width="0.311063"/>
</svg>
