<svg width="350" height="192" viewBox="0 0 350 192" fill="none" xmlns="http://www.w3.org/2000/svg">
<g filter="url(#filter0_d_1462_9802)">
<rect x="24" y="16" width="302" height="144" rx="24" fill="#2C3C54" shape-rendering="crispEdges"/>
<rect x="24.5" y="16.5" width="301" height="143" rx="23.5" stroke="white" stroke-opacity="0.0509804" shape-rendering="crispEdges"/>
<path d="M48.962 53V43.9H55.566V44.927H50.132V47.904H53.694V48.905H50.132V51.973H55.618V53H48.962ZM57.0489 53V43.9H61.0529C61.6596 43.9 62.1839 44.0127 62.6259 44.238C63.0766 44.4547 63.4276 44.7623 63.6789 45.161C63.9302 45.551 64.0559 46.0147 64.0559 46.552C64.0559 47.15 63.8826 47.6657 63.5359 48.099C63.1892 48.5237 62.7256 48.827 62.1449 49.009L64.1859 53H62.8859L60.9749 49.165H58.2189V53H57.0489ZM58.2189 48.19H60.9749C61.5556 48.19 62.0192 48.0427 62.3659 47.748C62.7126 47.4533 62.8859 47.0547 62.8859 46.552C62.8859 46.0667 62.7126 45.6767 62.3659 45.382C62.0192 45.0873 61.5556 44.94 60.9749 44.94H58.2189V48.19ZM65.5294 53V43.9H69.5334C70.14 43.9 70.6644 44.0127 71.1064 44.238C71.557 44.4547 71.908 44.7623 72.1594 45.161C72.4107 45.551 72.5364 46.0147 72.5364 46.552C72.5364 47.15 72.363 47.6657 72.0164 48.099C71.6697 48.5237 71.2061 48.827 70.6254 49.009L72.6664 53H71.3664L69.4554 49.165H66.6994V53H65.5294ZM66.6994 48.19H69.4554C70.036 48.19 70.4997 48.0427 70.8464 47.748C71.193 47.4533 71.3664 47.0547 71.3664 46.552C71.3664 46.0667 71.193 45.6767 70.8464 45.382C70.4997 45.0873 70.036 44.94 69.4554 44.94H66.6994V48.19ZM78.3129 53.143C77.6542 53.143 77.0389 53.026 76.4669 52.792C75.8949 52.5493 75.3922 52.2157 74.9589 51.791C74.5342 51.3577 74.2005 50.8593 73.9579 50.296C73.7239 49.724 73.6069 49.1087 73.6069 48.45C73.6069 47.7913 73.7239 47.1803 73.9579 46.617C74.2005 46.045 74.5342 45.5467 74.9589 45.122C75.3922 44.6887 75.8949 44.355 76.4669 44.121C77.0389 43.8783 77.6542 43.757 78.3129 43.757C78.9715 43.757 79.5825 43.8783 80.1459 44.121C80.7179 44.355 81.2205 44.6887 81.6539 45.122C82.0872 45.5467 82.4209 46.045 82.6549 46.617C82.8975 47.1803 83.0189 47.7913 83.0189 48.45C83.0189 49.1087 82.8975 49.724 82.6549 50.296C82.4209 50.8593 82.0872 51.3577 81.6539 51.791C81.2205 52.2157 80.7179 52.5493 80.1459 52.792C79.5825 53.026 78.9715 53.143 78.3129 53.143ZM78.3129 52.064C78.8155 52.064 79.2792 51.973 79.7039 51.791C80.1285 51.609 80.4969 51.3533 80.8089 51.024C81.1295 50.6947 81.3809 50.3133 81.5629 49.88C81.7449 49.438 81.8359 48.9613 81.8359 48.45C81.8359 47.93 81.7449 47.4533 81.5629 47.02C81.3809 46.5867 81.1295 46.2053 80.8089 45.876C80.4969 45.5467 80.1285 45.291 79.7039 45.109C79.2792 44.927 78.8155 44.836 78.3129 44.836C77.8189 44.836 77.3552 44.927 76.9219 45.109C76.4972 45.291 76.1245 45.5467 75.8039 45.876C75.4832 46.2053 75.2319 46.5867 75.0499 47.02C74.8765 47.4533 74.7899 47.93 74.7899 48.45C74.7899 48.9613 74.8765 49.438 75.0499 49.88C75.2319 50.3133 75.4832 50.6947 75.8039 51.024C76.1245 51.3533 76.4972 51.609 76.9219 51.791C77.3552 51.973 77.8189 52.064 78.3129 52.064ZM84.5343 53V43.9H88.5383C89.1449 43.9 89.6693 44.0127 90.1113 44.238C90.5619 44.4547 90.9129 44.7623 91.1643 45.161C91.4156 45.551 91.5413 46.0147 91.5413 46.552C91.5413 47.15 91.3679 47.6657 91.0213 48.099C90.6746 48.5237 90.2109 48.827 89.6303 49.009L91.6713 53H90.3713L88.4603 49.165H85.7043V53H84.5343ZM85.7043 48.19H88.4603C89.0409 48.19 89.5046 48.0427 89.8513 47.748C90.1979 47.4533 90.3713 47.0547 90.3713 46.552C90.3713 46.0667 90.1979 45.6767 89.8513 45.382C89.5046 45.0873 89.0409 44.94 88.4603 44.94H85.7043V48.19ZM96.0434 53.13C95.3154 53.13 94.6178 52.987 93.9504 52.701C93.2831 52.415 92.6981 52.0033 92.1954 51.466L92.9364 50.647C93.4131 51.141 93.9114 51.5093 94.4314 51.752C94.9601 51.9947 95.5148 52.116 96.0954 52.116C96.5548 52.116 96.9578 52.0467 97.3044 51.908C97.6598 51.7693 97.9371 51.5743 98.1364 51.323C98.3358 51.063 98.4354 50.7727 98.4354 50.452C98.4354 50.01 98.2794 49.672 97.9674 49.438C97.6641 49.204 97.1571 49.0307 96.4464 48.918L95.0424 48.684C94.1844 48.5367 93.5474 48.2723 93.1314 47.891C92.7241 47.5097 92.5204 46.9983 92.5204 46.357C92.5204 45.8457 92.6548 45.395 92.9234 45.005C93.2008 44.615 93.5821 44.316 94.0674 44.108C94.5614 43.8913 95.1334 43.783 95.7834 43.783C96.4334 43.783 97.0704 43.8913 97.6944 44.108C98.3271 44.316 98.8991 44.615 99.4104 45.005L98.7474 45.902C97.7594 45.148 96.7541 44.771 95.7314 44.771C95.3154 44.771 94.9514 44.836 94.6394 44.966C94.3274 45.0873 94.0848 45.2607 93.9114 45.486C93.7381 45.7027 93.6514 45.9627 93.6514 46.266C93.6514 46.6647 93.7858 46.9723 94.0544 47.189C94.3231 47.397 94.7694 47.5487 95.3934 47.644L96.7714 47.865C97.7508 48.0297 98.4658 48.3113 98.9164 48.71C99.3671 49.1087 99.5924 49.6633 99.5924 50.374C99.5924 50.92 99.4408 51.401 99.1374 51.817C98.8428 52.233 98.4268 52.558 97.8894 52.792C97.3608 53.0173 96.7454 53.13 96.0434 53.13Z" fill="#94A3B8"/>
<path d="M52.928 109V90.44L48.736 92.2V88.904L54.304 86.6H56.672V109H52.928ZM63.4905 109V90.44L59.2985 92.2V88.904L64.8665 86.6H67.2345V109H63.4905Z" fill="#EB5C2B"/>
<path d="M51.78 137V128.166H48.238V127.2H56.4V128.166H52.858V137H51.78ZM59.1713 137.14C58.5087 137.14 57.902 136.981 57.3513 136.664C56.81 136.337 56.3807 135.899 56.0633 135.348C55.746 134.797 55.5873 134.181 55.5873 133.5C55.5873 132.819 55.746 132.203 56.0633 131.652C56.3807 131.101 56.81 130.667 57.3513 130.35C57.902 130.023 58.5087 129.86 59.1713 129.86C59.8433 129.86 60.45 130.023 60.9913 130.35C61.5327 130.667 61.962 131.101 62.2793 131.652C62.5967 132.203 62.7553 132.819 62.7553 133.5C62.7553 134.181 62.5967 134.797 62.2793 135.348C61.962 135.899 61.5327 136.337 60.9913 136.664C60.45 136.981 59.8433 137.14 59.1713 137.14ZM59.1713 136.216C59.6473 136.216 60.0767 136.095 60.4593 135.852C60.8513 135.609 61.1593 135.283 61.3833 134.872C61.6167 134.461 61.7333 134.004 61.7333 133.5C61.7333 132.987 61.6167 132.529 61.3833 132.128C61.1593 131.717 60.8513 131.391 60.4593 131.148C60.0767 130.905 59.6473 130.784 59.1713 130.784C58.6953 130.784 58.2613 130.905 57.8693 131.148C57.4867 131.391 57.1787 131.717 56.9453 132.128C56.7213 132.529 56.6093 132.987 56.6093 133.5C56.6093 134.004 56.7213 134.461 56.9453 134.872C57.1787 135.283 57.4867 135.609 57.8693 135.852C58.2613 136.095 58.6953 136.216 59.1713 136.216ZM66.4603 137.14C65.8536 137.14 65.387 136.995 65.0603 136.706C64.7336 136.417 64.5703 135.997 64.5703 135.446V130.868H63.0583V129.986H64.5703V128.208L65.5923 127.942V129.986H67.7063V130.868H65.5923V135.18C65.5923 135.553 65.6763 135.824 65.8443 135.992C66.0123 136.151 66.2876 136.23 66.6703 136.23C66.8663 136.23 67.039 136.216 67.1883 136.188C67.347 136.16 67.515 136.113 67.6923 136.048V136.958C67.515 137.023 67.3143 137.07 67.0903 137.098C66.8756 137.126 66.6656 137.14 66.4603 137.14ZM71.0276 137.126C70.5143 137.126 70.0616 137.037 69.6696 136.86C69.2869 136.683 68.9836 136.435 68.7596 136.118C68.5449 135.801 68.4376 135.432 68.4376 135.012C68.4376 134.349 68.6896 133.827 69.1936 133.444C69.6976 133.061 70.3789 132.87 71.2376 132.87C71.9936 132.87 72.6796 133.029 73.2956 133.346V132.422C73.2956 131.862 73.1369 131.442 72.8196 131.162C72.5023 130.873 72.0403 130.728 71.4336 130.728C71.0883 130.728 70.7383 130.779 70.3836 130.882C70.0383 130.975 69.6556 131.129 69.2356 131.344L68.8436 130.546C69.3476 130.303 69.8143 130.126 70.2436 130.014C70.6729 129.902 71.1023 129.846 71.5316 129.846C72.4183 129.846 73.0996 130.056 73.5756 130.476C74.0609 130.896 74.3036 131.498 74.3036 132.282V137H73.2956V136.314C72.9783 136.585 72.6283 136.79 72.2456 136.93C71.8723 137.061 71.4663 137.126 71.0276 137.126ZM69.4316 134.984C69.4316 135.376 69.5949 135.698 69.9216 135.95C70.2576 136.193 70.6869 136.314 71.2096 136.314C71.6296 136.314 72.0123 136.249 72.3576 136.118C72.7029 135.987 73.0156 135.782 73.2956 135.502V134.186C73.0063 133.99 72.6983 133.85 72.3716 133.766C72.0449 133.673 71.6763 133.626 71.2656 133.626C70.7056 133.626 70.2576 133.752 69.9216 134.004C69.5949 134.247 69.4316 134.573 69.4316 134.984ZM76.0343 137V127.2L77.0703 126.962V137H76.0343Z" fill="#94A3B8"/>
<path d="M84.044 137V128.278L82.392 129.006V128.068L84.408 127.2H85.066V137H84.044ZM87.7969 137.084C87.6009 137.084 87.4329 137.014 87.2929 136.874C87.1529 136.734 87.0829 136.566 87.0829 136.37C87.0829 136.174 87.1529 136.006 87.2929 135.866C87.4329 135.726 87.6009 135.656 87.7969 135.656C87.9929 135.656 88.1609 135.726 88.3009 135.866C88.4409 136.006 88.5109 136.174 88.5109 136.37C88.5109 136.566 88.4409 136.734 88.3009 136.874C88.1609 137.014 87.9929 137.084 87.7969 137.084ZM93.4142 137.154C92.7422 137.154 92.1122 137.037 91.5242 136.804C90.9455 136.571 90.4322 136.225 89.9842 135.768L90.6562 135.11C91.0668 135.521 91.4868 135.819 91.9162 136.006C92.3548 136.183 92.8495 136.272 93.4002 136.272C93.8762 136.272 94.2962 136.188 94.6602 136.02C95.0335 135.852 95.3228 135.619 95.5282 135.32C95.7335 135.021 95.8362 134.681 95.8362 134.298C95.8362 133.934 95.7428 133.612 95.5562 133.332C95.3788 133.043 95.1315 132.819 94.8142 132.66C94.4968 132.501 94.1328 132.422 93.7222 132.422H92.5602V131.554H93.6802C94.2122 131.554 94.6415 131.391 94.9682 131.064C95.3042 130.737 95.4722 130.313 95.4722 129.79C95.4722 129.445 95.3788 129.132 95.1922 128.852C95.0055 128.572 94.7488 128.353 94.4222 128.194C94.1048 128.026 93.7455 127.942 93.3442 127.942C92.8402 127.942 92.3875 128.035 91.9862 128.222C91.5942 128.399 91.1928 128.703 90.7822 129.132L90.1102 128.46C90.5488 127.993 91.0435 127.643 91.5942 127.41C92.1448 127.167 92.7328 127.046 93.3582 127.046C93.9555 127.046 94.4875 127.163 94.9542 127.396C95.4302 127.629 95.8035 127.951 96.0742 128.362C96.3448 128.763 96.4802 129.221 96.4802 129.734C96.4802 130.247 96.3122 130.709 95.9762 131.12C95.6402 131.521 95.1968 131.801 94.6462 131.96C95.3088 132.109 95.8408 132.399 96.2422 132.828C96.6435 133.257 96.8442 133.757 96.8442 134.326C96.8442 134.867 96.6948 135.353 96.3962 135.782C96.1068 136.211 95.7008 136.547 95.1782 136.79C94.6648 137.033 94.0768 137.154 93.4142 137.154ZM102.162 137.14C101.406 137.14 100.739 136.939 100.16 136.538C99.5906 136.137 99.1426 135.586 98.816 134.886C98.4893 134.177 98.326 133.36 98.326 132.436C98.326 131.353 98.508 130.411 98.872 129.608C99.236 128.796 99.7493 128.166 100.412 127.718C101.075 127.27 101.845 127.046 102.722 127.046C103.133 127.046 103.539 127.102 103.94 127.214C104.341 127.326 104.701 127.489 105.018 127.704L104.514 128.488C104.225 128.32 103.921 128.189 103.604 128.096C103.287 128.003 102.965 127.956 102.638 127.956C101.966 127.956 101.383 128.133 100.888 128.488C100.403 128.833 100.025 129.333 99.754 129.986C99.4926 130.639 99.3526 131.423 99.334 132.338C99.698 131.871 100.132 131.507 100.636 131.246C101.14 130.985 101.663 130.854 102.204 130.854C102.839 130.854 103.403 130.985 103.898 131.246C104.393 131.507 104.78 131.871 105.06 132.338C105.34 132.795 105.48 133.318 105.48 133.906C105.48 134.522 105.335 135.077 105.046 135.572C104.757 136.057 104.36 136.44 103.856 136.72C103.361 137 102.797 137.14 102.162 137.14ZM102.064 131.68C101.551 131.68 101.056 131.811 100.58 132.072C100.113 132.324 99.7073 132.674 99.362 133.122C99.4366 133.747 99.5953 134.298 99.838 134.774C100.09 135.241 100.412 135.605 100.804 135.866C101.205 136.127 101.653 136.258 102.148 136.258C102.596 136.258 102.993 136.16 103.338 135.964C103.693 135.759 103.968 135.479 104.164 135.124C104.369 134.769 104.472 134.373 104.472 133.934C104.472 133.495 104.369 133.108 104.164 132.772C103.959 132.427 103.674 132.161 103.31 131.974C102.955 131.778 102.54 131.68 102.064 131.68ZM108.527 132.17C107.901 132.17 107.397 131.937 107.015 131.47C106.632 131.003 106.441 130.397 106.441 129.65C106.441 128.903 106.632 128.297 107.015 127.83C107.397 127.363 107.901 127.13 108.527 127.13C109.133 127.13 109.628 127.363 110.011 127.83C110.393 128.297 110.589 128.903 110.599 129.65C110.589 130.397 110.393 131.003 110.011 131.47C109.628 131.937 109.133 132.17 108.527 132.17ZM108.527 131.526C108.937 131.526 109.264 131.358 109.507 131.022C109.759 130.677 109.885 130.219 109.885 129.65C109.885 129.071 109.759 128.614 109.507 128.278C109.264 127.933 108.937 127.76 108.527 127.76C108.107 127.76 107.775 127.933 107.533 128.278C107.29 128.614 107.164 129.071 107.155 129.65C107.164 130.219 107.29 130.677 107.533 131.022C107.775 131.358 108.107 131.526 108.527 131.526ZM108.051 137L113.553 127.2H114.421L108.905 137H108.051ZM113.987 137.07C113.361 137.07 112.857 136.837 112.475 136.37C112.092 135.903 111.901 135.297 111.901 134.55C111.901 133.803 112.092 133.197 112.475 132.73C112.857 132.263 113.361 132.03 113.987 132.03C114.593 132.03 115.088 132.263 115.471 132.73C115.853 133.197 116.049 133.803 116.059 134.55C116.049 135.297 115.853 135.903 115.471 136.37C115.088 136.837 114.593 137.07 113.987 137.07ZM113.987 136.426C114.397 136.426 114.724 136.258 114.967 135.922C115.219 135.577 115.345 135.119 115.345 134.55C115.345 133.971 115.219 133.514 114.967 133.178C114.724 132.833 114.397 132.66 113.987 132.66C113.567 132.66 113.235 132.833 112.993 133.178C112.75 133.514 112.624 133.971 112.615 134.55C112.624 135.119 112.75 135.577 112.993 135.922C113.235 136.258 113.567 136.426 113.987 136.426ZM120.498 137V127.2H127.512V128.152H121.576V131.582H125.454V132.52H121.576V136.048H127.568V137H120.498ZM128.929 137V129.986H129.965V130.98C130.18 130.616 130.45 130.336 130.777 130.14C131.113 129.935 131.496 129.832 131.925 129.832C132.168 129.832 132.387 129.865 132.583 129.93V130.882C132.462 130.835 132.34 130.803 132.219 130.784C132.098 130.765 131.976 130.756 131.855 130.756C131.426 130.756 131.048 130.882 130.721 131.134C130.404 131.377 130.152 131.731 129.965 132.198V137H128.929ZM133.769 137V129.986H134.805V130.98C135.019 130.616 135.29 130.336 135.617 130.14C135.953 129.935 136.335 129.832 136.765 129.832C137.007 129.832 137.227 129.865 137.423 129.93V130.882C137.301 130.835 137.18 130.803 137.059 130.784C136.937 130.765 136.816 130.756 136.695 130.756C136.265 130.756 135.887 130.882 135.561 131.134C135.243 131.377 134.991 131.731 134.805 132.198V137H133.769ZM141.378 137.14C140.716 137.14 140.109 136.981 139.558 136.664C139.017 136.337 138.588 135.899 138.27 135.348C137.953 134.797 137.794 134.181 137.794 133.5C137.794 132.819 137.953 132.203 138.27 131.652C138.588 131.101 139.017 130.667 139.558 130.35C140.109 130.023 140.716 129.86 141.378 129.86C142.05 129.86 142.657 130.023 143.198 130.35C143.74 130.667 144.169 131.101 144.486 131.652C144.804 132.203 144.962 132.819 144.962 133.5C144.962 134.181 144.804 134.797 144.486 135.348C144.169 135.899 143.74 136.337 143.198 136.664C142.657 136.981 142.05 137.14 141.378 137.14ZM141.378 136.216C141.854 136.216 142.284 136.095 142.666 135.852C143.058 135.609 143.366 135.283 143.59 134.872C143.824 134.461 143.94 134.004 143.94 133.5C143.94 132.987 143.824 132.529 143.59 132.128C143.366 131.717 143.058 131.391 142.666 131.148C142.284 130.905 141.854 130.784 141.378 130.784C140.902 130.784 140.468 130.905 140.076 131.148C139.694 131.391 139.386 131.717 139.152 132.128C138.928 132.529 138.816 132.987 138.816 133.5C138.816 134.004 138.928 134.461 139.152 134.872C139.386 135.283 139.694 135.609 140.076 135.852C140.468 136.095 140.902 136.216 141.378 136.216ZM146.402 137V129.986H147.438V130.98C147.652 130.616 147.923 130.336 148.25 130.14C148.586 129.935 148.968 129.832 149.398 129.832C149.64 129.832 149.86 129.865 150.056 129.93V130.882C149.934 130.835 149.813 130.803 149.692 130.784C149.57 130.765 149.449 130.756 149.328 130.756C148.898 130.756 148.52 130.882 148.194 131.134C147.876 131.377 147.624 131.731 147.438 132.198V137H146.402ZM154.249 137V129.986H155.285V130.98C155.5 130.616 155.771 130.336 156.097 130.14C156.433 129.935 156.816 129.832 157.245 129.832C157.488 129.832 157.707 129.865 157.903 129.93V130.882C157.782 130.835 157.661 130.803 157.539 130.784C157.418 130.765 157.297 130.756 157.175 130.756C156.746 130.756 156.368 130.882 156.041 131.134C155.724 131.377 155.472 131.731 155.285 132.198V137H154.249ZM160.946 137.126C160.432 137.126 159.98 137.037 159.588 136.86C159.205 136.683 158.902 136.435 158.678 136.118C158.463 135.801 158.356 135.432 158.356 135.012C158.356 134.349 158.608 133.827 159.112 133.444C159.616 133.061 160.297 132.87 161.156 132.87C161.912 132.87 162.598 133.029 163.214 133.346V132.422C163.214 131.862 163.055 131.442 162.738 131.162C162.42 130.873 161.958 130.728 161.352 130.728C161.006 130.728 160.656 130.779 160.302 130.882C159.956 130.975 159.574 131.129 159.154 131.344L158.762 130.546C159.266 130.303 159.732 130.126 160.162 130.014C160.591 129.902 161.02 129.846 161.45 129.846C162.336 129.846 163.018 130.056 163.494 130.476C163.979 130.896 164.222 131.498 164.222 132.282V137H163.214V136.314C162.896 136.585 162.546 136.79 162.164 136.93C161.79 137.061 161.384 137.126 160.946 137.126ZM159.35 134.984C159.35 135.376 159.513 135.698 159.84 135.95C160.176 136.193 160.605 136.314 161.128 136.314C161.548 136.314 161.93 136.249 162.276 136.118C162.621 135.987 162.934 135.782 163.214 135.502V134.186C162.924 133.99 162.616 133.85 162.29 133.766C161.963 133.673 161.594 133.626 161.184 133.626C160.624 133.626 160.176 133.752 159.84 134.004C159.513 134.247 159.35 134.573 159.35 134.984ZM168.505 137.14C167.899 137.14 167.432 136.995 167.105 136.706C166.779 136.417 166.615 135.997 166.615 135.446V130.868H165.103V129.986H166.615V128.208L167.637 127.942V129.986H169.751V130.868H167.637V135.18C167.637 135.553 167.721 135.824 167.889 135.992C168.057 136.151 168.333 136.23 168.715 136.23C168.911 136.23 169.084 136.216 169.233 136.188C169.392 136.16 169.56 136.113 169.737 136.048V136.958C169.56 137.023 169.359 137.07 169.135 137.098C168.921 137.126 168.711 137.14 168.505 137.14ZM174.014 137.126C173.342 137.126 172.73 136.967 172.18 136.65C171.638 136.323 171.204 135.885 170.878 135.334C170.56 134.783 170.402 134.167 170.402 133.486C170.402 132.814 170.556 132.207 170.864 131.666C171.172 131.115 171.587 130.681 172.11 130.364C172.632 130.037 173.216 129.874 173.86 129.874C174.485 129.874 175.045 130.037 175.54 130.364C176.044 130.681 176.44 131.115 176.73 131.666C177.028 132.207 177.178 132.814 177.178 133.486V133.808H171.424C171.48 134.265 171.624 134.676 171.858 135.04C172.1 135.404 172.413 135.693 172.796 135.908C173.178 136.113 173.598 136.216 174.056 136.216C174.42 136.216 174.774 136.16 175.12 136.048C175.465 135.936 175.754 135.777 175.988 135.572L176.632 136.258C176.24 136.547 175.829 136.767 175.4 136.916C174.98 137.056 174.518 137.126 174.014 137.126ZM171.452 132.982H176.142C176.086 132.562 175.946 132.189 175.722 131.862C175.507 131.526 175.236 131.265 174.91 131.078C174.583 130.882 174.224 130.784 173.832 130.784C173.43 130.784 173.062 130.877 172.726 131.064C172.39 131.251 172.11 131.512 171.886 131.848C171.662 132.175 171.517 132.553 171.452 132.982Z" fill="#EB5C2B"/>
</g>
<defs>
<filter id="filter0_d_1462_9802" x="0" y="0" width="350" height="192" filterUnits="userSpaceOnUse" color-interpolation-filters="sRGB">
<feFlood flood-opacity="0" result="BackgroundImageFix"/>
<feColorMatrix in="SourceAlpha" type="matrix" values="0 0 0 0 0 0 0 0 0 0 0 0 0 0 0 0 0 0 127 0" result="hardAlpha"/>
<feOffset dy="8"/>
<feGaussianBlur stdDeviation="12"/>
<feComposite in2="hardAlpha" operator="out"/>
<feColorMatrix type="matrix" values="0 0 0 0 0 0 0 0 0 0 0 0 0 0 0 0 0 0 0.25098 0"/>
<feBlend mode="normal" in2="BackgroundImageFix" result="effect1_dropShadow_1462_9802"/>
<feBlend mode="normal" in="SourceGraphic" in2="effect1_dropShadow_1462_9802" result="shape"/>
</filter>
</defs>
</svg>
