<svg width="350" height="192" viewBox="0 0 350 192" fill="none" xmlns="http://www.w3.org/2000/svg">
<g filter="url(#filter0_d_1462_9809)">
<rect x="24" y="16" width="302" height="144" rx="24" fill="#2C3C54" shape-rendering="crispEdges"/>
<rect x="24.5" y="16.5" width="301" height="143" rx="23.5" stroke="white" stroke-opacity="0.0509804" shape-rendering="crispEdges"/>
<path d="M48.962 53V43.9H50.132V53H48.962ZM52.0724 53V43.9H53.2294L58.5204 50.998V43.9H59.6254V53H58.5984L53.1904 45.707V53H52.0724ZM61.5431 53V43.9H65.3521C65.9501 43.9 66.4657 43.9997 66.8991 44.199C67.3324 44.3897 67.6661 44.6627 67.9001 45.018C68.1427 45.3733 68.2641 45.7893 68.2641 46.266C68.2641 46.7253 68.1427 47.1283 67.9001 47.475C67.6661 47.813 67.3411 48.0773 66.9251 48.268C67.4451 48.4413 67.8567 48.7187 68.1601 49.1C68.4721 49.4727 68.6281 49.9147 68.6281 50.426C68.6281 50.946 68.4981 51.401 68.2381 51.791C67.9867 52.1723 67.6271 52.4713 67.1591 52.688C66.6911 52.896 66.1451 53 65.5211 53H61.5431ZM62.7131 47.813H65.2871C65.8417 47.813 66.2837 47.683 66.6131 47.423C66.9424 47.163 67.1071 46.8077 67.1071 46.357C67.1071 45.9063 66.9424 45.551 66.6131 45.291C66.2837 45.031 65.8417 44.901 65.2871 44.901H62.7131V47.813ZM62.7131 51.999H65.4301C66.0454 51.999 66.5351 51.8517 66.8991 51.557C67.2631 51.2623 67.4451 50.8723 67.4451 50.387C67.4451 49.893 67.2631 49.503 66.8991 49.217C66.5351 48.9223 66.0454 48.775 65.4301 48.775H62.7131V51.999ZM74.3519 53.143C73.6932 53.143 73.0779 53.026 72.5059 52.792C71.9339 52.5493 71.4312 52.2157 70.9979 51.791C70.5732 51.3577 70.2396 50.8593 69.9969 50.296C69.7629 49.724 69.6459 49.1087 69.6459 48.45C69.6459 47.7913 69.7629 47.1803 69.9969 46.617C70.2396 46.045 70.5732 45.5467 70.9979 45.122C71.4312 44.6887 71.9339 44.355 72.5059 44.121C73.0779 43.8783 73.6932 43.757 74.3519 43.757C75.0106 43.757 75.6216 43.8783 76.1849 44.121C76.7569 44.355 77.2596 44.6887 77.6929 45.122C78.1262 45.5467 78.4599 46.045 78.6939 46.617C78.9366 47.1803 79.0579 47.7913 79.0579 48.45C79.0579 49.1087 78.9366 49.724 78.6939 50.296C78.4599 50.8593 78.1262 51.3577 77.6929 51.791C77.2596 52.2157 76.7569 52.5493 76.1849 52.792C75.6216 53.026 75.0106 53.143 74.3519 53.143ZM74.3519 52.064C74.8546 52.064 75.3182 51.973 75.7429 51.791C76.1676 51.609 76.5359 51.3533 76.8479 51.024C77.1686 50.6947 77.4199 50.3133 77.6019 49.88C77.7839 49.438 77.8749 48.9613 77.8749 48.45C77.8749 47.93 77.7839 47.4533 77.6019 47.02C77.4199 46.5867 77.1686 46.2053 76.8479 45.876C76.5359 45.5467 76.1676 45.291 75.7429 45.109C75.3182 44.927 74.8546 44.836 74.3519 44.836C73.8579 44.836 73.3942 44.927 72.9609 45.109C72.5362 45.291 72.1636 45.5467 71.8429 45.876C71.5222 46.2053 71.2709 46.5867 71.0889 47.02C70.9156 47.4533 70.8289 47.93 70.8289 48.45C70.8289 48.9613 70.9156 49.438 71.0889 49.88C71.2709 50.3133 71.5222 50.6947 71.8429 51.024C72.1636 51.3533 72.5362 51.609 72.9609 51.791C73.3942 51.973 73.8579 52.064 74.3519 52.064ZM84.2133 53.143C83.4333 53.143 82.7573 52.9827 82.1853 52.662C81.6133 52.3327 81.1713 51.869 80.8593 51.271C80.556 50.6643 80.4043 49.9537 80.4043 49.139V43.9H81.5743V49.139C81.5743 49.7283 81.6827 50.244 81.8993 50.686C82.116 51.128 82.4237 51.4703 82.8223 51.713C83.221 51.947 83.6847 52.064 84.2133 52.064C84.7507 52.064 85.2143 51.947 85.6043 51.713C86.003 51.4703 86.3107 51.128 86.5273 50.686C86.744 50.244 86.8523 49.7283 86.8523 49.139V43.9H88.0223V49.139C88.0223 49.9537 87.8663 50.66 87.5543 51.258C87.2423 51.856 86.8003 52.3197 86.2283 52.649C85.665 52.9783 84.9933 53.143 84.2133 53.143ZM89.7774 53V43.9H90.9344L96.2254 50.998V43.9H97.3304V53H96.3034L90.8954 45.707V53H89.7774ZM100.418 51.947H102.394C102.897 51.947 103.36 51.8603 103.785 51.687C104.218 51.505 104.595 51.258 104.916 50.946C105.245 50.6253 105.497 50.257 105.67 49.841C105.852 49.4163 105.943 48.9527 105.943 48.45C105.943 47.956 105.852 47.4967 105.67 47.072C105.497 46.6473 105.245 46.279 104.916 45.967C104.595 45.6463 104.218 45.3993 103.785 45.226C103.36 45.044 102.897 44.953 102.394 44.953H100.418V51.947ZM99.2481 53V43.9H102.355C103.04 43.9 103.672 44.0127 104.253 44.238C104.834 44.4633 105.341 44.784 105.774 45.2C106.207 45.6073 106.541 46.0883 106.775 46.643C107.018 47.1977 107.139 47.8 107.139 48.45C107.139 49.1087 107.018 49.7153 106.775 50.27C106.541 50.8247 106.207 51.3057 105.774 51.713C105.349 52.1203 104.842 52.4367 104.253 52.662C103.672 52.8873 103.04 53 102.355 53H99.2481ZM111.398 53V43.9H115.402C116.008 43.9 116.533 44.0127 116.975 44.238C117.425 44.4547 117.776 44.7623 118.028 45.161C118.279 45.551 118.405 46.0147 118.405 46.552C118.405 47.15 118.231 47.6657 117.885 48.099C117.538 48.5237 117.074 48.827 116.494 49.009L118.535 53H117.235L115.324 49.165H112.568V53H111.398ZM112.568 48.19H115.324C115.904 48.19 116.368 48.0427 116.715 47.748C117.061 47.4533 117.235 47.0547 117.235 46.552C117.235 46.0667 117.061 45.6767 116.715 45.382C116.368 45.0873 115.904 44.94 115.324 44.94H112.568V48.19ZM119.878 53V43.9H126.482V44.927H121.048V47.904H124.61V48.905H121.048V51.973H126.534V53H119.878ZM134.739 53.247L134.102 52.493C133.755 52.6923 133.378 52.8527 132.971 52.974C132.572 53.0867 132.147 53.143 131.697 53.143C131.038 53.143 130.423 53.026 129.851 52.792C129.279 52.5493 128.776 52.2157 128.343 51.791C127.918 51.3577 127.584 50.8593 127.342 50.296C127.108 49.724 126.991 49.1087 126.991 48.45C126.991 47.7913 127.108 47.1803 127.342 46.617C127.584 46.045 127.918 45.5467 128.343 45.122C128.776 44.6887 129.279 44.355 129.851 44.121C130.423 43.8783 131.038 43.757 131.697 43.757C132.355 43.757 132.966 43.8783 133.53 44.121C134.102 44.355 134.604 44.6887 135.038 45.122C135.471 45.5467 135.805 46.045 136.039 46.617C136.281 47.1803 136.403 47.7913 136.403 48.45C136.403 49.126 136.268 49.763 136 50.361C135.74 50.9503 135.384 51.4573 134.934 51.882L135.883 53.039L134.739 53.247ZM131.697 52.064C132.009 52.064 132.303 52.0293 132.581 51.96C132.867 51.882 133.135 51.7693 133.387 51.622L132.139 50.14L133.283 49.906L134.206 51.011C134.526 50.6817 134.773 50.3003 134.947 49.867C135.129 49.425 135.22 48.9527 135.22 48.45C135.22 47.93 135.129 47.4533 134.947 47.02C134.765 46.5867 134.513 46.2053 134.193 45.876C133.881 45.5467 133.512 45.291 133.088 45.109C132.663 44.927 132.199 44.836 131.697 44.836C131.203 44.836 130.739 44.927 130.306 45.109C129.881 45.291 129.508 45.5467 129.188 45.876C128.867 46.2053 128.616 46.5867 128.434 47.02C128.26 47.4533 128.174 47.93 128.174 48.45C128.174 48.9613 128.26 49.438 128.434 49.88C128.616 50.3133 128.867 50.6947 129.188 51.024C129.508 51.3533 129.881 51.609 130.306 51.791C130.739 51.973 131.203 52.064 131.697 52.064ZM141.558 53.143C140.778 53.143 140.102 52.9827 139.53 52.662C138.958 52.3327 138.516 51.869 138.204 51.271C137.901 50.6643 137.749 49.9537 137.749 49.139V43.9H138.919V49.139C138.919 49.7283 139.027 50.244 139.244 50.686C139.461 51.128 139.768 51.4703 140.167 51.713C140.566 51.947 141.029 52.064 141.558 52.064C142.095 52.064 142.559 51.947 142.949 51.713C143.348 51.4703 143.655 51.128 143.872 50.686C144.089 50.244 144.197 49.7283 144.197 49.139V43.9H145.367V49.139C145.367 49.9537 145.211 50.66 144.899 51.258C144.587 51.856 144.145 52.3197 143.573 52.649C143.01 52.9783 142.338 53.143 141.558 53.143ZM147.122 53V43.9H153.726V44.927H148.292V47.904H151.854V48.905H148.292V51.973H153.778V53H147.122ZM158.225 53.13C157.497 53.13 156.799 52.987 156.132 52.701C155.465 52.415 154.88 52.0033 154.377 51.466L155.118 50.647C155.595 51.141 156.093 51.5093 156.613 51.752C157.142 51.9947 157.696 52.116 158.277 52.116C158.736 52.116 159.139 52.0467 159.486 51.908C159.841 51.7693 160.119 51.5743 160.318 51.323C160.517 51.063 160.617 50.7727 160.617 50.452C160.617 50.01 160.461 49.672 160.149 49.438C159.846 49.204 159.339 49.0307 158.628 48.918L157.224 48.684C156.366 48.5367 155.729 48.2723 155.313 47.891C154.906 47.5097 154.702 46.9983 154.702 46.357C154.702 45.8457 154.836 45.395 155.105 45.005C155.382 44.615 155.764 44.316 156.249 44.108C156.743 43.8913 157.315 43.783 157.965 43.783C158.615 43.783 159.252 43.8913 159.876 44.108C160.509 44.316 161.081 44.615 161.592 45.005L160.929 45.902C159.941 45.148 158.936 44.771 157.913 44.771C157.497 44.771 157.133 44.836 156.821 44.966C156.509 45.0873 156.266 45.2607 156.093 45.486C155.92 45.7027 155.833 45.9627 155.833 46.266C155.833 46.6647 155.967 46.9723 156.236 47.189C156.505 47.397 156.951 47.5487 157.575 47.644L158.953 47.865C159.932 48.0297 160.647 48.3113 161.098 48.71C161.549 49.1087 161.774 49.6633 161.774 50.374C161.774 50.92 161.622 51.401 161.319 51.817C161.024 52.233 160.608 52.558 160.071 52.792C159.542 53.0173 158.927 53.13 158.225 53.13ZM165.411 53V44.94H162.161V43.9H169.831V44.94H166.581V53H165.411ZM174.158 53.13C173.43 53.13 172.732 52.987 172.065 52.701C171.397 52.415 170.812 52.0033 170.31 51.466L171.051 50.647C171.527 51.141 172.026 51.5093 172.546 51.752C173.074 51.9947 173.629 52.116 174.21 52.116C174.669 52.116 175.072 52.0467 175.419 51.908C175.774 51.7693 176.051 51.5743 176.251 51.323C176.45 51.063 176.55 50.7727 176.55 50.452C176.55 50.01 176.394 49.672 176.082 49.438C175.778 49.204 175.271 49.0307 174.561 48.918L173.157 48.684C172.299 48.5367 171.662 48.2723 171.246 47.891C170.838 47.5097 170.635 46.9983 170.635 46.357C170.635 45.8457 170.769 45.395 171.038 45.005C171.315 44.615 171.696 44.316 172.182 44.108C172.676 43.8913 173.248 43.783 173.898 43.783C174.548 43.783 175.185 43.8913 175.809 44.108C176.441 44.316 177.013 44.615 177.525 45.005L176.862 45.902C175.874 45.148 174.868 44.771 173.846 44.771C173.43 44.771 173.066 44.836 172.754 44.966C172.442 45.0873 172.199 45.2607 172.026 45.486C171.852 45.7027 171.766 45.9627 171.766 46.266C171.766 46.6647 171.9 46.9723 172.169 47.189C172.437 47.397 172.884 47.5487 173.508 47.644L174.886 47.865C175.865 48.0297 176.58 48.3113 177.031 48.71C177.481 49.1087 177.707 49.6633 177.707 50.374C177.707 50.92 177.555 51.401 177.252 51.817C176.957 52.233 176.541 52.558 176.004 52.792C175.475 53.0173 174.86 53.13 174.158 53.13Z" fill="#94A3B8"/>
<path d="M57.6 109.352C55.9787 109.352 54.5387 109.075 53.28 108.52C52.0213 107.965 51.0293 107.197 50.304 106.216C49.6 105.213 49.248 104.083 49.248 102.824C49.248 101.971 49.4507 101.181 49.856 100.456C50.2613 99.7093 50.816 99.0693 51.52 98.536C52.2453 97.9813 53.0773 97.5867 54.016 97.352C52.8213 96.9467 51.8507 96.296 51.104 95.4C50.3787 94.504 50.016 93.5013 50.016 92.392C50.016 91.2187 50.3467 90.1733 51.008 89.256C51.6693 88.3173 52.576 87.5813 53.728 87.048C54.88 86.5147 56.1707 86.248 57.6 86.248C59.0507 86.248 60.3413 86.5147 61.472 87.048C62.624 87.5813 63.5307 88.3173 64.192 89.256C64.8533 90.1733 65.184 91.2187 65.184 92.392C65.184 93.5013 64.8107 94.504 64.064 95.4C63.3387 96.296 62.3787 96.9467 61.184 97.352C62.592 97.736 63.7333 98.4293 64.608 99.432C65.504 100.413 65.952 101.544 65.952 102.824C65.952 104.083 65.5893 105.213 64.864 106.216C64.16 107.197 63.1787 107.965 61.92 108.52C60.6613 109.075 59.2213 109.352 57.6 109.352ZM57.6 96.04C58.368 96.04 59.0613 95.8907 59.68 95.592C60.2987 95.2933 60.7787 94.888 61.12 94.376C61.4827 93.864 61.664 93.2773 61.664 92.616C61.664 91.976 61.4827 91.4 61.12 90.888C60.7787 90.3547 60.2987 89.9387 59.68 89.64C59.0613 89.3413 58.368 89.192 57.6 89.192C56.832 89.192 56.1387 89.3413 55.52 89.64C54.9013 89.9387 54.4107 90.3547 54.048 90.888C53.7067 91.4 53.536 91.976 53.536 92.616C53.536 93.2773 53.7067 93.864 54.048 94.376C54.4107 94.888 54.9013 95.2933 55.52 95.592C56.1387 95.8907 56.832 96.04 57.6 96.04ZM57.6 106.376C58.5173 106.376 59.328 106.216 60.032 105.896C60.736 105.576 61.2907 105.128 61.696 104.552C62.1227 103.955 62.336 103.304 62.336 102.6C62.336 101.875 62.1227 101.224 61.696 100.648C61.2907 100.072 60.736 99.624 60.032 99.304C59.328 98.9627 58.5173 98.792 57.6 98.792C56.6827 98.792 55.872 98.9627 55.168 99.304C54.464 99.624 53.8987 100.072 53.472 100.648C53.0667 101.224 52.864 101.875 52.864 102.6C52.864 103.304 53.0667 103.955 53.472 104.552C53.8987 105.128 54.464 105.576 55.168 105.896C55.872 106.216 56.6827 106.376 57.6 106.376ZM77.8793 109.352C75.9593 109.352 74.2739 108.872 72.8233 107.912C71.3939 106.931 70.2739 105.576 69.4633 103.848C68.6526 102.099 68.2473 100.083 68.2473 97.8C68.2473 95.5173 68.6526 93.512 69.4633 91.784C70.2739 90.0347 71.3939 88.68 72.8233 87.72C74.2739 86.7387 75.9593 86.248 77.8793 86.248C79.7779 86.248 81.4526 86.7387 82.9033 87.72C84.3539 88.68 85.4846 90.0347 86.2953 91.784C87.1059 93.512 87.5113 95.5173 87.5113 97.8C87.5113 100.083 87.1059 102.099 86.2953 103.848C85.4846 105.576 84.3539 106.931 82.9033 107.912C81.4526 108.872 79.7779 109.352 77.8793 109.352ZM77.8793 106.088C79.0953 106.088 80.1406 105.757 81.0153 105.096C81.9113 104.413 82.6046 103.453 83.0953 102.216C83.5859 100.957 83.8313 99.4853 83.8313 97.8C83.8313 96.0933 83.5859 94.6213 83.0953 93.384C82.6046 92.1467 81.9113 91.1973 81.0153 90.536C80.1406 89.8533 79.0953 89.512 77.8793 89.512C76.6633 89.512 75.6073 89.8533 74.7113 90.536C73.8153 91.1973 73.1219 92.1467 72.6313 93.384C72.1619 94.6213 71.9273 96.0933 71.9273 97.8C71.9273 99.4853 72.1619 100.957 72.6313 102.216C73.1219 103.453 73.8153 104.413 74.7113 105.096C75.6073 105.757 76.6633 106.088 77.8793 106.088ZM97.8745 86.248C99.7092 86.248 101.32 86.7173 102.707 87.656C104.115 88.5733 105.203 89.8533 105.971 91.496C106.76 93.1387 107.155 95.048 107.155 97.224C107.155 99.6347 106.717 101.757 105.843 103.592C104.989 105.405 103.773 106.813 102.195 107.816C100.637 108.819 98.8132 109.32 96.7225 109.32C95.6345 109.32 94.5465 109.149 93.4585 108.808C92.3705 108.445 91.4532 107.965 90.7065 107.368L92.6905 104.744C93.3305 105.192 94.0025 105.533 94.7065 105.768C95.4318 106.003 96.1998 106.12 97.0105 106.12C98.3758 106.12 99.5492 105.768 100.531 105.064C101.512 104.36 102.259 103.347 102.771 102.024C103.304 100.701 103.581 99.112 103.603 97.256C102.835 98.3013 101.907 99.112 100.819 99.688C99.7518 100.264 98.6318 100.552 97.4585 100.552C95.9865 100.552 94.6852 100.253 93.5545 99.656C92.4238 99.0587 91.5385 98.248 90.8985 97.224C90.2585 96.1787 89.9385 94.984 89.9385 93.64C89.9385 92.2107 90.2798 90.9413 90.9625 89.832C91.6452 88.7227 92.5838 87.848 93.7785 87.208C94.9945 86.568 96.3598 86.248 97.8745 86.248ZM98.0025 97.704C99.0478 97.704 100.04 97.4693 100.979 97C101.917 96.5307 102.728 95.88 103.411 95.048C103.24 93.896 102.899 92.8933 102.387 92.04C101.896 91.1867 101.277 90.5253 100.531 90.056C99.7838 89.5867 98.9412 89.352 98.0025 89.352C97.1492 89.352 96.3705 89.5333 95.6665 89.896C94.9838 90.2587 94.4505 90.76 94.0665 91.4C93.6825 92.04 93.4905 92.7653 93.4905 93.576C93.4905 94.3867 93.6825 95.1013 94.0665 95.72C94.4505 96.3387 94.9838 96.8293 95.6665 97.192C96.3492 97.5333 97.1278 97.704 98.0025 97.704Z" fill="#F8FAFC"/>
<path d="M51.78 137V128.166H48.238V127.2H56.4V128.166H52.858V137H51.78ZM59.1713 137.14C58.5087 137.14 57.902 136.981 57.3513 136.664C56.81 136.337 56.3807 135.899 56.0633 135.348C55.746 134.797 55.5873 134.181 55.5873 133.5C55.5873 132.819 55.746 132.203 56.0633 131.652C56.3807 131.101 56.81 130.667 57.3513 130.35C57.902 130.023 58.5087 129.86 59.1713 129.86C59.8433 129.86 60.45 130.023 60.9913 130.35C61.5327 130.667 61.962 131.101 62.2793 131.652C62.5967 132.203 62.7553 132.819 62.7553 133.5C62.7553 134.181 62.5967 134.797 62.2793 135.348C61.962 135.899 61.5327 136.337 60.9913 136.664C60.45 136.981 59.8433 137.14 59.1713 137.14ZM59.1713 136.216C59.6473 136.216 60.0767 136.095 60.4593 135.852C60.8513 135.609 61.1593 135.283 61.3833 134.872C61.6167 134.461 61.7333 134.004 61.7333 133.5C61.7333 132.987 61.6167 132.529 61.3833 132.128C61.1593 131.717 60.8513 131.391 60.4593 131.148C60.0767 130.905 59.6473 130.784 59.1713 130.784C58.6953 130.784 58.2613 130.905 57.8693 131.148C57.4867 131.391 57.1787 131.717 56.9453 132.128C56.7213 132.529 56.6093 132.987 56.6093 133.5C56.6093 134.004 56.7213 134.461 56.9453 134.872C57.1787 135.283 57.4867 135.609 57.8693 135.852C58.2613 136.095 58.6953 136.216 59.1713 136.216ZM66.4603 137.14C65.8536 137.14 65.387 136.995 65.0603 136.706C64.7336 136.417 64.5703 135.997 64.5703 135.446V130.868H63.0583V129.986H64.5703V128.208L65.5923 127.942V129.986H67.7063V130.868H65.5923V135.18C65.5923 135.553 65.6763 135.824 65.8443 135.992C66.0123 136.151 66.2876 136.23 66.6703 136.23C66.8663 136.23 67.039 136.216 67.1883 136.188C67.347 136.16 67.515 136.113 67.6923 136.048V136.958C67.515 137.023 67.3143 137.07 67.0903 137.098C66.8756 137.126 66.6656 137.14 66.4603 137.14ZM71.0276 137.126C70.5143 137.126 70.0616 137.037 69.6696 136.86C69.2869 136.683 68.9836 136.435 68.7596 136.118C68.5449 135.801 68.4376 135.432 68.4376 135.012C68.4376 134.349 68.6896 133.827 69.1936 133.444C69.6976 133.061 70.3789 132.87 71.2376 132.87C71.9936 132.87 72.6796 133.029 73.2956 133.346V132.422C73.2956 131.862 73.1369 131.442 72.8196 131.162C72.5023 130.873 72.0403 130.728 71.4336 130.728C71.0883 130.728 70.7383 130.779 70.3836 130.882C70.0383 130.975 69.6556 131.129 69.2356 131.344L68.8436 130.546C69.3476 130.303 69.8143 130.126 70.2436 130.014C70.6729 129.902 71.1023 129.846 71.5316 129.846C72.4183 129.846 73.0996 130.056 73.5756 130.476C74.0609 130.896 74.3036 131.498 74.3036 132.282V137H73.2956V136.314C72.9783 136.585 72.6283 136.79 72.2456 136.93C71.8723 137.061 71.4663 137.126 71.0276 137.126ZM69.4316 134.984C69.4316 135.376 69.5949 135.698 69.9216 135.95C70.2576 136.193 70.6869 136.314 71.2096 136.314C71.6296 136.314 72.0123 136.249 72.3576 136.118C72.7029 135.987 73.0156 135.782 73.2956 135.502V134.186C73.0063 133.99 72.6983 133.85 72.3716 133.766C72.0449 133.673 71.6763 133.626 71.2656 133.626C70.7056 133.626 70.2576 133.752 69.9216 134.004C69.5949 134.247 69.4316 134.573 69.4316 134.984ZM76.0343 137V127.2L77.0703 126.962V137H76.0343Z" fill="#94A3B8"/>
<path d="M86.004 137.154C85.332 137.154 84.702 137.037 84.114 136.804C83.5353 136.571 83.022 136.225 82.574 135.768L83.246 135.11C83.6567 135.521 84.0767 135.819 84.506 136.006C84.9447 136.183 85.4393 136.272 85.99 136.272C86.466 136.272 86.886 136.188 87.25 136.02C87.6233 135.852 87.9127 135.619 88.118 135.32C88.3233 135.021 88.426 134.681 88.426 134.298C88.426 133.934 88.3327 133.612 88.146 133.332C87.9687 133.043 87.7213 132.819 87.404 132.66C87.0867 132.501 86.7227 132.422 86.312 132.422H85.15V131.554H86.27C86.802 131.554 87.2313 131.391 87.558 131.064C87.894 130.737 88.062 130.313 88.062 129.79C88.062 129.445 87.9687 129.132 87.782 128.852C87.5953 128.572 87.3387 128.353 87.012 128.194C86.6947 128.026 86.3353 127.942 85.934 127.942C85.43 127.942 84.9773 128.035 84.576 128.222C84.184 128.399 83.7827 128.703 83.372 129.132L82.7 128.46C83.1387 127.993 83.6333 127.643 84.184 127.41C84.7347 127.167 85.3227 127.046 85.948 127.046C86.5453 127.046 87.0773 127.163 87.544 127.396C88.02 127.629 88.3933 127.951 88.664 128.362C88.9347 128.763 89.07 129.221 89.07 129.734C89.07 130.247 88.902 130.709 88.566 131.12C88.23 131.521 87.7867 131.801 87.236 131.96C87.8987 132.109 88.4307 132.399 88.832 132.828C89.2333 133.257 89.434 133.757 89.434 134.326C89.434 134.867 89.2847 135.353 88.986 135.782C88.6967 136.211 88.2907 136.547 87.768 136.79C87.2547 137.033 86.6667 137.154 86.004 137.154ZM93.4583 137L97.5183 127.2H98.8203L102.852 137H101.676L100.444 133.92H95.8243L94.5783 137H93.4583ZM96.2023 132.996H100.066L98.1343 128.194L96.2023 132.996ZM106.679 137.126C106.016 137.126 105.414 136.967 104.873 136.65C104.331 136.323 103.902 135.885 103.585 135.334C103.267 134.783 103.109 134.167 103.109 133.486C103.109 132.805 103.267 132.193 103.585 131.652C103.902 131.101 104.331 130.663 104.873 130.336C105.414 130.009 106.016 129.846 106.679 129.846C107.192 129.846 107.687 129.944 108.163 130.14C108.639 130.327 109.059 130.597 109.423 130.952L108.765 131.708C108.485 131.409 108.163 131.185 107.799 131.036C107.444 130.877 107.075 130.798 106.693 130.798C106.217 130.798 105.783 130.919 105.391 131.162C105.008 131.395 104.7 131.717 104.467 132.128C104.243 132.529 104.131 132.982 104.131 133.486C104.131 133.99 104.243 134.447 104.467 134.858C104.7 135.269 105.013 135.595 105.405 135.838C105.797 136.071 106.231 136.188 106.707 136.188C107.089 136.188 107.449 136.113 107.785 135.964C108.13 135.815 108.452 135.595 108.751 135.306L109.395 136.006C109.021 136.361 108.601 136.636 108.135 136.832C107.668 137.028 107.183 137.126 106.679 137.126ZM113.503 137.14C112.897 137.14 112.43 136.995 112.103 136.706C111.777 136.417 111.613 135.997 111.613 135.446V130.868H110.101V129.986H111.613V128.208L112.635 127.942V129.986H114.749V130.868H112.635V135.18C112.635 135.553 112.719 135.824 112.887 135.992C113.055 136.151 113.331 136.23 113.713 136.23C113.909 136.23 114.082 136.216 114.231 136.188C114.39 136.16 114.558 136.113 114.735 136.048V136.958C114.558 137.023 114.357 137.07 114.133 137.098C113.919 137.126 113.709 137.14 113.503 137.14ZM115.859 137V129.986H116.895V137H115.859ZM116.377 128.642C116.19 128.642 116.027 128.572 115.887 128.432C115.747 128.292 115.677 128.129 115.677 127.942C115.677 127.746 115.747 127.583 115.887 127.452C116.027 127.312 116.19 127.242 116.377 127.242C116.573 127.242 116.736 127.312 116.867 127.452C117.007 127.583 117.077 127.746 117.077 127.942C117.077 128.129 117.007 128.292 116.867 128.432C116.736 128.572 116.573 128.642 116.377 128.642ZM120.887 137L117.849 129.986H118.997L121.391 135.656L123.785 129.986H124.891L121.867 137H120.887ZM128.924 137.126C128.252 137.126 127.641 136.967 127.09 136.65C126.549 136.323 126.115 135.885 125.788 135.334C125.471 134.783 125.312 134.167 125.312 133.486C125.312 132.814 125.466 132.207 125.774 131.666C126.082 131.115 126.497 130.681 127.02 130.364C127.543 130.037 128.126 129.874 128.77 129.874C129.395 129.874 129.955 130.037 130.45 130.364C130.954 130.681 131.351 131.115 131.64 131.666C131.939 132.207 132.088 132.814 132.088 133.486V133.808H126.334C126.39 134.265 126.535 134.676 126.768 135.04C127.011 135.404 127.323 135.693 127.706 135.908C128.089 136.113 128.509 136.216 128.966 136.216C129.33 136.216 129.685 136.16 130.03 136.048C130.375 135.936 130.665 135.777 130.898 135.572L131.542 136.258C131.15 136.547 130.739 136.767 130.31 136.916C129.89 137.056 129.428 137.126 128.924 137.126ZM126.362 132.982H131.052C130.996 132.562 130.856 132.189 130.632 131.862C130.417 131.526 130.147 131.265 129.82 131.078C129.493 130.882 129.134 130.784 128.742 130.784C128.341 130.784 127.972 130.877 127.636 131.064C127.3 131.251 127.02 131.512 126.796 131.848C126.572 132.175 126.427 132.553 126.362 132.982ZM139.232 137.14C138.7 137.14 138.229 137.028 137.818 136.804C137.407 136.571 137.085 136.253 136.852 135.852C136.628 135.441 136.516 134.965 136.516 134.424V129.986H137.538V134.214C137.538 134.839 137.715 135.334 138.07 135.698C138.425 136.053 138.901 136.23 139.498 136.23C139.918 136.23 140.291 136.137 140.618 135.95C140.954 135.754 141.225 135.483 141.43 135.138V129.986H142.466V137H141.43V136.188C140.879 136.823 140.147 137.14 139.232 137.14ZM146.468 137.14C145.889 137.14 145.343 137.047 144.83 136.86C144.326 136.664 143.887 136.393 143.514 136.048L144.144 135.376C144.47 135.675 144.83 135.908 145.222 136.076C145.614 136.235 146.015 136.314 146.426 136.314C146.986 136.314 147.443 136.197 147.798 135.964C148.152 135.731 148.33 135.427 148.33 135.054C148.33 134.746 148.222 134.508 148.008 134.34C147.802 134.163 147.476 134.041 147.028 133.976L145.81 133.808C145.11 133.705 144.587 133.495 144.242 133.178C143.906 132.861 143.738 132.431 143.738 131.89C143.738 131.498 143.85 131.148 144.074 130.84C144.298 130.532 144.606 130.289 144.998 130.112C145.399 129.935 145.856 129.846 146.37 129.846C146.883 129.846 147.364 129.921 147.812 130.07C148.26 130.219 148.698 130.453 149.128 130.77L148.582 131.47C148.19 131.199 147.807 131.003 147.434 130.882C147.07 130.751 146.696 130.686 146.314 130.686C145.828 130.686 145.436 130.793 145.138 131.008C144.839 131.223 144.69 131.503 144.69 131.848C144.69 132.165 144.792 132.408 144.998 132.576C145.203 132.735 145.534 132.847 145.992 132.912L147.21 133.08C147.91 133.173 148.432 133.379 148.778 133.696C149.132 134.013 149.31 134.447 149.31 134.998C149.31 135.399 149.184 135.763 148.932 136.09C148.68 136.417 148.339 136.673 147.91 136.86C147.49 137.047 147.009 137.14 146.468 137.14ZM153.834 137.126C153.162 137.126 152.551 136.967 152 136.65C151.459 136.323 151.025 135.885 150.698 135.334C150.381 134.783 150.222 134.167 150.222 133.486C150.222 132.814 150.376 132.207 150.684 131.666C150.992 131.115 151.407 130.681 151.93 130.364C152.453 130.037 153.036 129.874 153.68 129.874C154.305 129.874 154.865 130.037 155.36 130.364C155.864 130.681 156.261 131.115 156.55 131.666C156.849 132.207 156.998 132.814 156.998 133.486V133.808H151.244C151.3 134.265 151.445 134.676 151.678 135.04C151.921 135.404 152.233 135.693 152.616 135.908C152.999 136.113 153.419 136.216 153.876 136.216C154.24 136.216 154.595 136.16 154.94 136.048C155.285 135.936 155.575 135.777 155.808 135.572L156.452 136.258C156.06 136.547 155.649 136.767 155.22 136.916C154.8 137.056 154.338 137.126 153.834 137.126ZM151.272 132.982H155.962C155.906 132.562 155.766 132.189 155.542 131.862C155.327 131.526 155.057 131.265 154.73 131.078C154.403 130.882 154.044 130.784 153.652 130.784C153.251 130.784 152.882 130.877 152.546 131.064C152.21 131.251 151.93 131.512 151.706 131.848C151.482 132.175 151.337 132.553 151.272 132.982ZM158.446 137V129.986H159.482V130.98C159.697 130.616 159.968 130.336 160.294 130.14C160.63 129.935 161.013 129.832 161.442 129.832C161.685 129.832 161.904 129.865 162.1 129.93V130.882C161.979 130.835 161.858 130.803 161.736 130.784C161.615 130.765 161.494 130.756 161.372 130.756C160.943 130.756 160.565 130.882 160.238 131.134C159.921 131.377 159.669 131.731 159.482 132.198V137H158.446ZM165.458 137.14C164.879 137.14 164.333 137.047 163.82 136.86C163.316 136.664 162.877 136.393 162.504 136.048L163.134 135.376C163.461 135.675 163.82 135.908 164.212 136.076C164.604 136.235 165.005 136.314 165.416 136.314C165.976 136.314 166.433 136.197 166.788 135.964C167.143 135.731 167.32 135.427 167.32 135.054C167.32 134.746 167.213 134.508 166.998 134.34C166.793 134.163 166.466 134.041 166.018 133.976L164.8 133.808C164.1 133.705 163.577 133.495 163.232 133.178C162.896 132.861 162.728 132.431 162.728 131.89C162.728 131.498 162.84 131.148 163.064 130.84C163.288 130.532 163.596 130.289 163.988 130.112C164.389 129.935 164.847 129.846 165.36 129.846C165.873 129.846 166.354 129.921 166.802 130.07C167.25 130.219 167.689 130.453 168.118 130.77L167.572 131.47C167.18 131.199 166.797 131.003 166.424 130.882C166.06 130.751 165.687 130.686 165.304 130.686C164.819 130.686 164.427 130.793 164.128 131.008C163.829 131.223 163.68 131.503 163.68 131.848C163.68 132.165 163.783 132.408 163.988 132.576C164.193 132.735 164.525 132.847 164.982 132.912L166.2 133.08C166.9 133.173 167.423 133.379 167.768 133.696C168.123 134.013 168.3 134.447 168.3 134.998C168.3 135.399 168.174 135.763 167.922 136.09C167.67 136.417 167.329 136.673 166.9 136.86C166.48 137.047 165.999 137.14 165.458 137.14Z" fill="#10B981"/>
</g>
<defs>
<filter id="filter0_d_1462_9809" x="0" y="0" width="350" height="192" filterUnits="userSpaceOnUse" color-interpolation-filters="sRGB">
<feFlood flood-opacity="0" result="BackgroundImageFix"/>
<feColorMatrix in="SourceAlpha" type="matrix" values="0 0 0 0 0 0 0 0 0 0 0 0 0 0 0 0 0 0 127 0" result="hardAlpha"/>
<feOffset dy="8"/>
<feGaussianBlur stdDeviation="12"/>
<feComposite in2="hardAlpha" operator="out"/>
<feColorMatrix type="matrix" values="0 0 0 0 0 0 0 0 0 0 0 0 0 0 0 0 0 0 0.25098 0"/>
<feBlend mode="normal" in2="BackgroundImageFix" result="effect1_dropShadow_1462_9809"/>
<feBlend mode="normal" in="SourceGraphic" in2="effect1_dropShadow_1462_9809" result="shape"/>
</filter>
</defs>
</svg>
