<svg width="50" height="58" viewBox="0 0 50 58" fill="none" xmlns="http://www.w3.org/2000/svg">
<path fill-rule="evenodd" clip-rule="evenodd" d="M24.9901 0C38.7906 0 50 11.3175 50 25.2757C50 37.3749 41.4022 49.5332 27.8619 57.4283C26.5698 58.1817 24.9901 57.2221 24.9901 55.7264V49.1667C11.9163 49.1667 0 38.4989 0 25.2757C0 11.3175 11.1897 0 24.9901 0ZM13.1111 28.0952C12.0065 28.0952 11.1111 27.1998 11.1111 26.0952V18.8571C11.1111 17.7526 12.0065 16.8571 13.1111 16.8571H20.2222C21.3268 16.8571 22.2222 17.7526 22.2222 18.8571V28.0952C22.2222 31.4667 19.5358 33.7143 16.6667 33.7143V28.0952H13.1111ZM29.7778 28.0952C28.6732 28.0952 27.7778 27.1998 27.7778 26.0952V18.8571C27.7778 17.7526 28.6732 16.8571 29.7778 16.8571H36.8889C37.9935 16.8571 38.8889 17.7526 38.8889 18.8571V28.0952C38.8889 31.4667 36.2025 33.7143 33.3333 33.7143V28.0952H29.7778Z" fill="white"/>
</svg>
