<svg width="132" height="35" viewBox="0 0 132 35" fill="none" xmlns="http://www.w3.org/2000/svg">
<path d="M125.653 27.1367V8.14818H131.468V27.1367H125.653ZM128.56 6.38932C127.675 6.38932 126.921 6.07823 126.299 5.45605C125.677 4.83387 125.366 4.08007 125.366 3.19466C125.366 2.30925 125.677 1.55545 126.299 0.933273C126.921 0.311091 127.675 0 128.56 0C129.446 0 130.199 0.311091 130.822 0.933273C131.444 1.55545 131.755 2.30925 131.755 3.19466C131.755 4.08007 131.444 4.83387 130.822 5.45605C130.199 6.07823 129.446 6.38932 128.56 6.38932Z" fill="#2750F5"/>
<path d="M102.377 34.4593V8.14819H108.121V9.5481C109.628 8.44731 111.327 7.89692 113.218 7.89692C115.036 7.89692 116.676 8.33963 118.135 9.22504C119.595 10.0865 120.756 11.2591 121.617 12.7428C122.479 14.2025 122.909 15.8417 122.909 17.6604C122.909 19.4791 122.467 21.1302 121.581 22.6139C120.72 24.0736 119.535 25.2342 118.028 26.0957C116.544 26.9572 114.881 27.3879 113.038 27.3879C112.153 27.3879 111.303 27.2803 110.49 27.0649C109.676 26.8495 108.91 26.5384 108.192 26.1316V34.4593H102.377ZM112.213 22.4703C113.17 22.4703 114.019 22.2669 114.761 21.8601C115.503 21.4294 116.089 20.855 116.52 20.1371C116.975 19.3953 117.202 18.5697 117.202 17.6604C117.202 16.751 116.975 15.9374 116.52 15.2195C116.089 14.4777 115.491 13.9034 114.725 13.4966C113.983 13.0658 113.146 12.8504 112.213 12.8504C111.399 12.8504 110.657 12.9821 109.987 13.2453C109.317 13.4846 108.719 13.8555 108.192 14.358V20.9986C108.695 21.4533 109.293 21.8122 109.987 22.0755C110.681 22.3387 111.423 22.4703 112.213 22.4703Z" fill="#2750F5"/>
<path d="M87.9367 27.4597C86.5966 27.4597 85.4001 27.2085 84.3472 26.7059C83.3182 26.2034 82.5046 25.5094 81.9063 24.624C81.332 23.7386 81.0448 22.7216 81.0448 21.5729C81.0448 19.7543 81.7268 18.3544 83.0909 17.3732C84.4788 16.3682 86.4052 15.8656 88.87 15.8656C90.3536 15.8656 91.7894 16.0451 93.1774 16.4041V15.4708C93.1774 14.5136 92.8663 13.8076 92.2441 13.353C91.6458 12.8744 90.7485 12.6351 89.552 12.6351C88.8101 12.6351 87.9726 12.7547 87.0393 12.994C86.13 13.2333 85.0531 13.6162 83.8088 14.1427L81.7268 9.87115C83.2823 9.17718 84.7779 8.66268 86.2137 8.32766C87.6735 7.96871 89.1332 7.78924 90.5929 7.78924C93.2252 7.78924 95.2712 8.42338 96.731 9.69168C98.1907 10.936 98.9206 12.6949 98.9206 14.9683V27.1367H93.1774V25.988C92.4116 26.5145 91.598 26.8974 90.7365 27.1367C89.8989 27.3521 88.9657 27.4597 87.9367 27.4597ZM86.5727 21.4653C86.5727 22.0635 86.8359 22.5301 87.3624 22.8652C87.8888 23.2002 88.6187 23.3677 89.552 23.3677C90.2459 23.3677 90.892 23.2959 91.4903 23.1523C92.1125 23.0087 92.6748 22.7814 93.1774 22.4703V20.0295C92.627 19.8859 92.0646 19.7782 91.4903 19.7064C90.916 19.6346 90.3297 19.5987 89.7314 19.5987C88.7264 19.5987 87.9487 19.7662 87.3983 20.1012C86.8479 20.4123 86.5727 20.867 86.5727 21.4653Z" fill="#2750F5"/>
<path d="M62.8893 34.89C62.4346 34.89 61.9919 34.8661 61.5612 34.8182C61.1304 34.7943 60.7715 34.7464 60.4843 34.6746V29.7211C60.9629 29.8168 61.5612 29.8647 62.2791 29.8647C64.1456 29.8647 65.4019 29.0511 66.048 27.4238V27.3879L58.7614 8.14817H65.1866L69.3863 20.1012L74.268 8.14817H80.5497L72.0425 28.1058C71.3486 29.757 70.5828 31.0732 69.7452 32.0543C68.9077 33.0593 67.9385 33.7773 66.8377 34.208C65.737 34.6627 64.4208 34.89 62.8893 34.89Z" fill="#2750F5"/>
<path d="M50.2176 27.4956C48.4228 27.4956 46.7597 27.2922 45.2282 26.8854C43.6967 26.4547 42.3685 25.8325 41.2438 25.0189L44.0078 21.1063C45.2043 21.8242 46.2931 22.3507 47.2742 22.6857C48.2553 22.9968 49.2245 23.1523 50.1817 23.1523C51.1389 23.1523 51.8927 23.0207 52.4431 22.7575C53.0174 22.4703 53.3046 22.0994 53.3046 21.6447C53.3046 21.2858 53.149 20.9986 52.8379 20.7832C52.5268 20.5439 52.0363 20.3764 51.3662 20.2807L47.5973 19.7064C45.7068 19.4192 44.259 18.7971 43.254 17.8399C42.2728 16.8587 41.7823 15.5904 41.7823 14.035C41.7823 12.7428 42.1053 11.642 42.7514 10.7326C43.4215 9.79936 44.3667 9.09342 45.5871 8.61482C46.8076 8.11229 48.2673 7.86103 49.9663 7.86103C51.3543 7.86103 52.7303 8.05247 54.0943 8.43535C55.4583 8.81823 56.7266 9.39255 57.8991 10.1583L55.1352 13.8914C54.1062 13.2931 53.1251 12.8624 52.1918 12.5992C51.2586 12.312 50.3253 12.1684 49.392 12.1684C48.6502 12.1684 48.0519 12.3 47.5973 12.5633C47.1426 12.8026 46.9153 13.1256 46.9153 13.5324C46.9153 13.9153 47.0828 14.2264 47.4178 14.4657C47.7528 14.6811 48.3271 14.8486 49.1408 14.9682L52.9097 15.5426C54.7763 15.8058 56.2121 16.428 57.2171 17.4091C58.2461 18.3663 58.7606 19.5867 58.7606 21.0704C58.7606 22.3148 58.3897 23.4156 57.6479 24.3728C56.906 25.33 55.889 26.0957 54.5968 26.67C53.3285 27.2204 51.8688 27.4956 50.2176 27.4956Z" fill="#2750F5"/>
<path d="M28.2753 27.4597C26.9352 27.4597 25.7387 27.2085 24.6857 26.7059C23.6567 26.2034 22.8431 25.5094 22.2449 24.624C21.6706 23.7386 21.3834 22.7216 21.3834 21.5729C21.3834 19.7543 22.0654 18.3544 23.4294 17.3732C24.8174 16.3682 26.7437 15.8656 29.2085 15.8656C30.6922 15.8656 32.128 16.0451 33.5159 16.4041V15.4708C33.5159 14.5136 33.2048 13.8076 32.5827 13.353C31.9844 12.8744 31.087 12.6351 29.8905 12.6351C29.1487 12.6351 28.3111 12.7547 27.3779 12.994C26.4685 13.2333 25.3917 13.6162 24.1473 14.1427L22.0654 9.87115C23.6209 9.17718 25.1165 8.66268 26.5523 8.32766C28.012 7.96871 29.4718 7.78924 30.9315 7.78924C33.5638 7.78924 35.6098 8.42338 37.0695 9.69168C38.5293 10.936 39.2591 12.6949 39.2591 14.9683V27.1367H33.5159V25.988C32.7502 26.5145 31.9365 26.8974 31.0751 27.1367C30.2375 27.3521 29.3042 27.4597 28.2753 27.4597ZM26.9112 21.4653C26.9112 22.0635 27.1745 22.5301 27.7009 22.8652C28.2274 23.2002 28.9573 23.3677 29.8905 23.3677C30.5845 23.3677 31.2306 23.2959 31.8289 23.1523C32.451 23.0087 33.0134 22.7814 33.5159 22.4703V20.0295C32.9655 19.8859 32.4032 19.7782 31.8289 19.7064C31.2545 19.6346 30.6683 19.5987 30.07 19.5987C29.0649 19.5987 28.2872 19.7662 27.7368 20.1012C27.1864 20.4123 26.9112 20.867 26.9112 21.4653Z" fill="#2750F5"/>
<path d="M10.3378 27.4956C8.39945 27.4956 6.64059 27.0649 5.06121 26.2034C3.50575 25.318 2.27335 24.1334 1.36401 22.6498C0.454671 21.1661 0 19.503 0 17.6604C0 15.8177 0.430741 14.1546 1.29222 12.6709C2.17763 11.1873 3.37414 10.0147 4.88173 9.15323C6.38932 8.26782 8.06443 7.82511 9.90704 7.82511C11.7736 7.82511 13.4248 8.27979 14.8606 9.18913C16.2964 10.0745 17.4211 11.295 18.2347 12.8504C19.0722 14.4059 19.491 16.1887 19.491 18.1988V19.6346H5.95858C6.22181 20.2328 6.5688 20.7593 6.99954 21.214C7.45421 21.6686 7.99264 22.0276 8.61482 22.2908C9.237 22.5301 9.90704 22.6498 10.6249 22.6498C11.4146 22.6498 12.1325 22.5301 12.7786 22.2908C13.4248 22.0276 13.9751 21.6686 14.4298 21.214L18.2706 24.624C17.0741 25.6291 15.8417 26.3589 14.5734 26.8136C13.329 27.2683 11.9172 27.4956 10.3378 27.4956ZM5.8509 15.5784H13.7837C13.5923 14.9563 13.2931 14.4298 12.8863 13.9991C12.5034 13.5444 12.0488 13.1974 11.5223 12.9581C10.9959 12.6949 10.4215 12.5633 9.79936 12.5633C9.15324 12.5633 8.56696 12.6829 8.0405 12.9222C7.51403 13.1615 7.05936 13.5085 6.67648 13.9632C6.31753 14.3939 6.04234 14.9323 5.8509 15.5784Z" fill="#2750F5"/>
</svg>
